<?xml version="1.0" encoding="UTF-8"?>
<svg width="52px" height="52px" viewBox="0 0 52 52" version="1.1" xmlns="http://www.w3.org/2000/svg" xmlns:xlink="http://www.w3.org/1999/xlink">
    <!-- Generator: Sketch 52.6 (67491) - http://www.bohemiancoding.com/sketch -->
    <title>新增</title>
    <desc>Created with Sketch.</desc>
    <g id="Page-1" stroke="none" stroke-width="1" fill="none" fill-rule="evenodd">
        <g id="管理工单-抽查情况" transform="translate(-662.000000, -28.000000)" fill="#4D88CF" fill-rule="nonzero">
            <g id="标题2">
                <g id="标题1">
                    <g id="新增" transform="translate(662.000000, 28.000000)">
                        <path d="M25.8952968,51.4487563 C11.8782083,51.4487563 0.515057531,40.0833153 0.515057531,26.0643834 C0.515057531,12.0454514 11.8782083,0.680904208 25.8952968,0.680904208 C39.912553,0.680904208 51.2756478,12.0455073 51.2756478,26.0643834 C51.2756478,40.0833153 39.9124971,51.4487563 25.8952968,51.4487563 Z M25.8952968,3.8537204 C13.6301837,3.8537204 3.68765029,13.7977062 3.68765029,26.0643834 C3.68765029,38.3310605 13.6302396,48.2752139 25.8952968,48.2752139 C38.1604099,48.2752139 48.1029434,38.3310605 48.1029434,26.0643834 C48.1029434,13.7977062 38.1603541,3.8537204 25.8952968,3.8537204 Z M35.4129075,27.6511825 L27.4817049,27.6511825 L27.4817049,35.583614 C27.4817049,36.4593168 26.7714801,37.1697819 25.8954141,37.1697819 C25.0193538,37.1697819 24.3092462,36.4593168 24.3092462,35.583614 L24.3092462,27.6511825 L16.3778202,27.6511825 C15.5017599,27.6511825 14.7915294,26.9408347 14.7915294,26.0644113 C14.7915294,25.1885911 15.5018772,24.4782434 16.3778202,24.4782434 L24.3092462,24.4782434 L24.3092462,16.5454767 C24.3092462,15.6697739 25.0194711,14.9596719 25.8954141,14.9596719 C26.7715974,14.9596719 27.4817049,15.6696566 27.4817049,16.5454767 L27.4817049,24.4782434 L35.4129075,24.4782434 C36.2890908,24.4782434 36.9991983,25.1885911 36.9991983,26.0644113 C36.9991982,26.9408347 36.2890908,27.6511825 35.4129075,27.6511825 Z" id="形状"></path>
                    </g>
                </g>
            </g>
        </g>
    </g>
</svg>