<?xml version="1.0" encoding="utf-8"?>
        <!-- Svg Vector Icons : http://www.sfont.cn -->
        <!DOCTYPE svg PUBLIC "-//W3C//DTD SVG 1.1//EN" "http://www.w3.org/Graphics/SVG/1.1/DTD/svg11.dtd">
<svg version="1.1" xmlns="http://www.w3.org/2000/svg" xmlns:xlink="http://www.w3.org/1999/xlink" x="0px" y="0px" viewBox="0 0 1000 1000" enable-background="new 0 0 1000 1000" xml:space="preserve">
<metadata> Svg Vector Icons : http://www.sfont.cn </metadata>
<g><path d="M883.4,990H664.3c-58.9,0-106.7-47.7-106.7-106.5V664.3c0-58.8,47.8-106.6,106.7-106.6h219.1c58.8,0,106.6,47.9,106.6,106.6v219.2C990,942.3,942.2,990,883.4,990z M664.3,579.2c-47,0-85.1,38.1-85.1,85v219.2c0,46.9,38.1,85,85.1,85h219.1c46.9,0,85-38.1,85-85V664.3c0-46.9-38.1-85-85-85H664.3z M335.7,990H116.6C57.8,990,10,942.3,10,883.4V664.3c0-58.8,47.8-106.6,106.6-106.6h219c58.9,0,106.7,47.9,106.7,106.6v219.2C442.4,942.3,394.5,990,335.7,990z M116.6,579.2c-46.9,0-85.1,38.1-85.1,85v219.2c0,46.9,38.2,85,85.1,85h219c47,0,85.2-38.1,85.2-85V664.3c0-46.9-38.2-85-85.2-85H116.6z M883.4,442.3H664.3c-58.9,0-106.7-47.8-106.7-106.6V116.6C557.6,57.8,605.4,10,664.3,10h219.1C942.2,10,990,57.8,990,116.6v219.1C990,394.6,942.2,442.3,883.4,442.3z M664.3,31.6c-47,0-85.1,38.1-85.1,85v219.1c0,46.9,38.1,85.1,85.1,85.1h219.1c46.9,0,85-38.2,85-85.1V116.6c0-46.9-38.1-85-85-85H664.3z M335.7,442.3H116.6C57.8,442.3,10,394.6,10,335.7V116.6C10,57.8,57.8,10,116.6,10h219c58.9,0,106.7,47.8,106.7,106.6v219.1C442.4,394.6,394.5,442.3,335.7,442.3z M116.6,31.6c-46.9,0-85.1,38.1-85.1,85v219.1c0,46.9,38.2,85.1,85.1,85.1h219c47,0,85.2-38.2,85.2-85.1V116.6c0-46.9-38.2-85-85.2-85H116.6z"/></g>
</svg>