<?xml version="1.0" encoding="utf-8"?>
<!-- Svg Vector Icons : http://www.sfont.cn -->
<!DOCTYPE svg PUBLIC "-//W3C//DTD SVG 1.1//EN" "http://www.w3.org/Graphics/SVG/1.1/DTD/svg11.dtd">
<svg version="1.1" xmlns="http://www.w3.org/2000/svg" xmlns:xlink="http://www.w3.org/1999/xlink" x="0px" y="0px" viewBox="0 0 1000 1000" enable-background="new 0 0 1000 1000" xml:space="preserve">
<metadata> Svg Vector Icons : http://www.sfont.cn </metadata>
<g><g transform="translate(0.000000,511.000000) scale(0.100000,-0.100000)"><path d="M110.2,4963.7c12.9-31,867-2226.7,1899-4881.8c1032.1-2655,1883.6-4845.7,1893.9-4871.5c10.3-25.8,250.3,1011.5,557.3,2397C4759.7-1048.2,5015.2,63.9,5030.6,79.4c15.5,15.5,1127.6,270.9,2471.9,570.2c1393.3,307,2422.8,547,2397,557.3c-25.8,10.3-2216.4,861.8-4871.5,1893.9C2373,4132.9,177.2,4986.9,146.3,4999.8C94.7,5017.9,92.1,5015.3,110.2,4963.7z"/></g></g>
</svg>