<?xml version="1.0" encoding="utf-8"?>
<!-- Svg Vector Icons : http://www.sfont.cn -->
<!DOCTYPE svg PUBLIC "-//W3C//DTD SVG 1.1//EN" "http://www.w3.org/Graphics/SVG/1.1/DTD/svg11.dtd">
<svg version="1.1" xmlns="http://www.w3.org/2000/svg" xmlns:xlink="http://www.w3.org/1999/xlink" x="0px" y="0px" viewBox="0 0 1000 1000" enable-background="new 0 0 1000 1000" xml:space="preserve">
<metadata> Svg Vector Icons : http://www.sfont.cn </metadata>
<g><path d="M803.9,308.2c0-60.8-49.3-110.2-110.2-110.2c-60.4,0-118.4,49.6-119.1,109.9c0.1,24.1,0.5,118.3,0.5,118.3s85.3,0.3,118.7,0.3C754.5,426.5,803.9,369.1,803.9,308.2z"/><path d="M306.3,198.1c-60.8,0-110.2,49.3-110.2,110.2s49.3,118.3,110.2,118.3c33.4,0,118.7-0.3,118.7-0.3s0.3-94.2,0.5-118.3C424.7,247.6,366.7,198.1,306.3,198.1z"/><path d="M196.1,691.8c0,60.8,49.3,110.2,110.2,110.2c60.4,0,118.4-49.6,119.2-109.9c-0.1-24.1-0.5-118.3-0.5-118.3s-85.3-0.3-118.7-0.3C245.5,573.5,196.1,630.9,196.1,691.8z"/><path d="M693.7,573.5c-33.4,0-118.7,0.3-118.7,0.3s-0.3,94.2-0.5,118.3c0.8,60.3,58.7,109.9,119.1,109.9c60.8,0,110.2-49.3,110.2-110.2C803.9,630.9,754.5,573.5,693.7,573.5z"/><path d="M500,10C229.4,10,10,229.4,10,500c0,270.6,219.4,490,490,490c270.6,0,490-219.4,490-490C990,229.4,770.6,10,500,10z M474.2,690.1c0,88.1-77.2,162.5-165.4,162.5c-88.1,0-162.5-74.3-162.5-162.5c0-88.1,74.3-165.4,162.5-165.4c48.3,0,165.7,1.1,165.7,1.1S474.2,650.3,474.2,690.1z M308.9,475.3c-88.1,0-162.5-77.2-162.5-165.4c0-88.1,74.3-162.5,162.5-162.5s165.3,74.3,165.4,162.5c0,39.8,0.3,164.3,0.3,164.3S357.2,475.3,308.9,475.3z M525.8,309.9c0-88.1,77.2-159.6,165.4-159.6c88.1,0,159.6,71.4,159.6,159.6c0,88.1-71.4,165.4-159.6,165.4c-48.3,0-165.7-1.1-165.7-1.1S525.8,349.7,525.8,309.9z M691.1,852.5c-88.1,0-165.4-74.3-165.4-162.5c0-39.8-0.3-164.3-0.3-164.3s117.3-1.1,165.7-1.1c88.1,0,162.5,77.2,162.5,165.4C853.6,778.2,779.3,852.5,691.1,852.5z"/></g>
</svg>