<?xml version="1.0" encoding="utf-8"?>
<!-- Svg Vector Icons : http://www.sfont.cn -->
<!DOCTYPE svg PUBLIC "-//W3C//DTD SVG 1.1//EN" "http://www.w3.org/Graphics/SVG/1.1/DTD/svg11.dtd">
<svg version="1.1" xmlns="http://www.w3.org/2000/svg" xmlns:xlink="http://www.w3.org/1999/xlink" x="0px" y="0px" viewBox="0 0 1024 1024" enable-background="new 0 0 1000 1000" xml:space="preserve">
<metadata> Svg Vector Icons : http://www.sfont.cn </metadata>
<g><path d="M430.140791 672.790876H174.244774c-12.09411 0-22.236526 18.74907-22.236525 31.579066s10.142415 31.611061 22.236525 31.611061h255.928012c12.190095 0 22.268521-18.781065 22.26852-31.611061-0.031995-12.829995-10.078425-31.579066-22.300515-31.579066z m0-161.062834H174.244774c-12.09411 0-22.236526 15.54957-22.236525 28.379566s10.142415 33.242806 22.236525 33.242806h255.928012c12.190095 0 22.268521-20.380815 22.26852-33.242806-0.031995-12.829995-10.078425-28.379566-22.300515-28.379566z m15.16563 450.073676H154.311889c-49.464271 0-89.873957-42.809311-89.873957-95.217122V155.943634c0-52.407811 40.409686-95.217122 89.873957-95.217123H709.329167c49.464271 0 89.873957 42.809311 89.873958 95.217123v221.50139c0 11.806155 21.916576 21.404656 33.050835 21.404656 11.07027 0 31.419091-9.630495 31.419091-21.404656V138.218403c0-75.956132-58.550851-138.058428-130.251648-138.058428H130.251648C58.550851 0.159975 0 62.262272 0 138.218403v747.691174C0 961.897703 58.550851 1024 130.251648 1024h315.054773c11.07027 0 20.22084-19.292985 20.22084-31.099141 0-11.77416-9.15057-31.099141-20.22084-31.099141z m276.628777-576.357944c0-12.829995-7.518825-34.810561-17.117326-34.81056H169.733479c-9.5985 0-17.21331 21.980566-17.21331 34.81056s7.61481 31.579066 17.21331 31.579066h535.084393c9.118575 0 17.117325-18.74907 17.117326-31.579066z m-17.149321-194.241649H169.733479c-9.5985 0-17.21331 20.380815-17.21331 33.242805 0 12.829995 7.61481 29.947321 17.21331 29.947321h535.084393c9.118575 0 17.117325-17.14932 17.117326-29.947321 0-12.86199-7.55082-33.242806-17.149321-33.242805zM772.039369 513.039838c-138.826308 0-259.799406 113.294298-259.799406 252.632526 0 139.242243 121.005093 252.568536 259.799406 252.568536 138.826308 0 251.800656-113.326293 251.800656-252.568536 0-139.338228-112.974348-252.632526-251.800656-252.632526z m0 467.606936c-118.061553 0-222.237275-96.496922-222.237276-214.97441 0-118.573473 104.175723-215.070395 222.237276-215.070396 118.125543 0 214.238525 96.496922 214.238525 215.070396 0 118.477488-96.144977 214.97441-214.238525 214.97441z m127.596063-227.356476a14.90967 14.90967 0 0 0-10.654335 4.35132l-89.554007 76.756007v-182.883424a14.7177 14.7177 0 0 0-4.383316-10.654335c-2.94354-2.94354-40.057741-4.41531-44.217091-4.41531a14.557725 14.557725 0 0 0-10.62234 4.41531 14.621715 14.621715 0 0 0-4.383315 10.654335v181.795594l-80.435432-72.404686a14.39775 14.39775 0 0 0-10.654335-4.351321 14.557725 14.557725 0 0 0-15.005656 15.037651c0 4.22334 1.47177 7.80678 4.319325 10.68633l114.766068 108.942978c2.911545 2.911545 10.782315 4.35132 15.005656 4.35132s12.126105-1.439775 15.005655-4.35132l131.467458-112.206468a15.069645 15.069645 0 0 0 4.319325-10.68633 14.621715 14.621715 0 0 0-4.383315-10.654336 14.46174 14.46174 0 0 0-10.590345-4.383315z" /></g>
</svg>