<?xml version="1.0" standalone="no"?><!DOCTYPE svg PUBLIC "-//W3C//DTD SVG 1.1//EN" "http://www.w3.org/Graphics/SVG/1.1/DTD/svg11.dtd"><svg t="1561624912943" class="icon" viewBox="0 0 1024 1024" version="1.1" xmlns="http://www.w3.org/2000/svg" p-id="3012" width="48" height="48" xmlns:xlink="http://www.w3.org/1999/xlink"><defs><style type="text/css"></style></defs><path d="M1012.736 203.264l-532.992 532.992h-192v-192l532.992-532.992c7.68-7.68 17.408-11.264 27.136-11.264s19.456 3.584 27.136 11.264l137.728 137.728c7.68 7.68 11.264 17.408 11.264 27.136s-3.584 19.456-11.264 27.136z m-164.864-91.136l-463.872 463.872V640h64l463.872-463.872-64-64z m-351.744 47.616h-399.872v768h768v-399.872c0.512-26.624 22.528-47.616 49.152-46.592 25.6 0.512 46.08 20.992 46.592 46.592v432.128c0 35.328-28.672 64-64 64h-832c-35.328 0-64-28.672-64-64V128c0-35.328 28.672-64 64-64h432.128c26.624 0 48.128 21.504 48.128 48.128s-21.504 47.616-48.128 47.616z" fill="#3EC4D9" p-id="3013"></path></svg>