<?xml version="1.0" encoding="UTF-8"?>
<svg width="122px" height="122px" viewBox="0 0 122 122" version="1.1" xmlns="http://www.w3.org/2000/svg" xmlns:xlink="http://www.w3.org/1999/xlink">
    <!-- Generator: Sketch 55.2 (78181) - https://sketchapp.com -->
    <title>Group 5 Copy 2         </title>
    <desc>Created with Sketch.</desc>
    <defs>
        <linearGradient x1="50%" y1="22.499744%" x2="50%" y2="63.839427%" id="linearGradient-1">
            <stop stop-color="#90BADD" offset="0%"></stop>
            <stop stop-color="#558AB7" offset="100%"></stop>
        </linearGradient>
    </defs>
    <g id="Page-1" stroke="none" stroke-width="1" fill="none" fill-rule="evenodd">
        <g id="主界面" transform="translate(-555.000000, -561.000000)">
            <g id="Group-5-Copy-2" transform="translate(555.000000, 561.000000)">
                <rect id="Rectangle" fill="url(#linearGradient-1)" x="0" y="0" width="122" height="122" rx="24"></rect>
                <g id="周计划" transform="translate(26.000000, 24.000000)" fill="#FFFFFF" fill-rule="nonzero">
                    <path d="M22.1875,15.975 C23.6075,15.975 24.85,14.7325 24.85,13.3125 L24.85,2.6625 C24.85,1.2425 23.6075,0 22.1875,0 C20.7675,0 19.525,1.2425 19.525,2.6625 L19.525,13.3125 C19.525,14.7325 20.7675,15.975 22.1875,15.975 Z M42.6,5.325 L28.4,5.325 L28.4,10.65 L42.6,10.65 L42.6,5.325 Z M48.8125,15.975 C50.2325,15.975 51.475,14.7325 51.475,13.3125 L51.475,2.6625 C51.475,1.2425 50.2325,0 48.8125,0 C47.3925,0 46.15,1.2425 46.15,2.6625 L46.15,13.3125 C46.15,14.7325 47.3925,15.975 48.8125,15.975 Z M63.9,5.325 L55.025,5.325 L55.025,10.65 L58.575,10.65 C62.48,10.65 65.675,13.845 65.675,17.75 L65.675,23.075 L5.325,23.075 L5.325,17.75 C5.325,13.845 8.52,10.65 12.425,10.65 L15.975,10.65 L15.975,5.325 L7.1,5.325 C3.195,5.325 0,8.52 0,12.425 L0,63.9 C0,67.805 3.195,71 7.1,71 L63.9,71 C67.805,71 71,67.805 71,63.9 L71,12.425 C71,8.52 67.805,5.325 63.9,5.325 L63.9,5.325 Z M65.675,58.575 C65.675,62.48 62.48,65.675 58.575,65.675 L12.425,65.675 C8.52,65.675 5.325,62.48 5.325,58.575 L5.325,28.4 L65.675,28.4 L65.675,58.575 Z M13.3125,55.025 L27.5125,55.025 C28.9325,55.025 30.175,53.7825 30.175,52.3625 C30.175,50.9425 28.9325,49.7 27.5125,49.7 L13.3125,49.7 C11.8925,49.7 10.65,50.9425 10.65,52.3625 C10.65,53.7825 11.8925,55.025 13.3125,55.025 Z M58.5963,38.1261647 L51.4395,56.8 L48.1317353,56.8 L55.3186059,38.1261647 L48.7932882,38.1261647 L48.7932882,41.4940706 L45.8463706,41.4940706 L45.8463706,35.3897412 L58.5963,35.3897412 L58.5963,38.1261647 Z M13.3125,42.6 L38.1625,42.6 C39.5825,42.6 40.825,41.3575 40.825,39.9375 C40.825,38.5175 39.5825,37.275 38.1625,37.275 L13.3125,37.275 C11.8925,37.275 10.65,38.5175 10.65,39.9375 C10.65,41.3575 11.8925,42.6 13.3125,42.6 Z" id="Shape"></path>
                </g>
            </g>
        </g>
    </g>
</svg>
