<?xml version="1.0" encoding="UTF-8"?>
<svg width="122px" height="122px" viewBox="0 0 122 122" version="1.1" xmlns="http://www.w3.org/2000/svg" xmlns:xlink="http://www.w3.org/1999/xlink">
    <!-- Generator: Sketch 55.2 (78181) - https://sketchapp.com -->
    <title>Group 5</title>
    <desc>Created with Sketch.</desc>
    <defs>
        <linearGradient x1="50%" y1="22.499744%" x2="50%" y2="63.839427%" id="linearGradient-1">
            <stop stop-color="#90BADD" offset="0%"></stop>
            <stop stop-color="#558AB7" offset="100%"></stop>
        </linearGradient>
    </defs>
    <g id="Page-1" stroke="none" stroke-width="1" fill="none" fill-rule="evenodd">
        <g id="主界面" transform="translate(-73.000000, -561.000000)">
            <g id="Group-5" transform="translate(73.000000, 561.000000)">
                <rect id="Rectangle" fill="url(#linearGradient-1)" x="0" y="0" width="122" height="122" rx="24"></rect>
                <g id="计划停机时间管理" transform="translate(27.000000, 25.000000)" fill="#FFFFFF">
                    <g id="Group">
                        <path d="M50.4125587,14.3375167 L14.8000172,14.3375167 C12.9500151,14.3375167 11.5625135,15.7250183 11.5625135,17.5750205 C11.5625135,19.4250226 12.9500151,20.8125242 14.8000172,20.8125242 L50.4125587,20.8125242 C51.3375597,20.8125242 51.8000603,20.3500237 52.2625608,19.8875231 C52.7250614,19.4250226 53.1875619,18.5000215 53.1875619,17.1125199 C53.6500624,15.7250183 52.2625608,14.3375167 50.4125587,14.3375167 L50.4125587,14.3375167 Z M26.8250312,46.2500538 L14.8000172,46.2500538 C12.9500151,46.2500538 11.5625135,47.6375554 11.5625135,49.4875576 C11.5625135,51.3375597 12.9500151,52.7250614 14.8000172,52.7250614 L26.8250312,52.7250614 C28.6750334,52.7250614 30.062535,51.3375597 30.062535,49.4875576 C30.062535,47.6375554 28.6750334,46.2500538 26.8250312,46.2500538 Z M38.8500452,29.1375339 L14.8000172,29.1375339 C12.9500151,29.1375339 11.5625135,30.5250355 11.5625135,32.3750377 C11.5625135,34.2250398 12.9500151,35.6125414 14.8000172,35.6125414 L38.3875447,35.6125414 C40.2375468,35.6125414 41.6250484,34.2250398 41.6250484,32.3750377 C42.087549,30.5250355 40.7000474,29.1375339 38.8500452,29.1375339 Z" id="Shape" fill-rule="nonzero"></path>
                        <path d="M55.037564,-1.22124675e-15 L10.1750118,-1.22124675e-15 C4.62500538,-1.22124675e-15 2.4424935e-15,4.16250484 2.4424935e-15,9.7125113 L2.4424935e-15,60.12507 C2.4424935e-15,65.6750764 4.62500538,69.8375813 10.1750118,69.8375813 L37.0000431,69.8375813 L37.0000431,69.3750807 C36.075042,67.9875791 35.1500409,66.137577 34.2250398,64.2875748 L10.1750118,64.2875748 C7.40000861,64.2875748 5.55000646,62.4375727 5.55000646,59.6625694 L5.55000646,9.7125113 C5.55000646,7.40000861 7.86250915,5.08750592 10.1750118,5.08750592 L55.037564,5.08750592 C57.8125673,5.08750592 59.6625694,6.93750807 59.6625694,9.7125113 L59.6625694,28.2125328 C61.5125716,28.6750334 62.9000732,29.1375339 64.7500753,30.062535 L65.2125759,30.062535 L65.2125759,9.7125113 C65.2125759,4.16250484 60.5875705,-1.22124675e-15 55.037564,-1.22124675e-15 Z" id="Path"></path>
                        <path d="M55.9625651,74.0000861 C46.2500538,74.0000861 37.9250441,66.137577 37.9250441,55.9625651 C37.9250441,50.8750592 40.2375468,45.7875533 43.9375511,42.5500495 C44.8625522,41.6250484 46.7125544,41.6250484 47.6375554,42.5500495 C48.5625565,43.4750506 48.5625565,45.3250527 47.6375554,46.2500538 C44.8625522,48.5625565 43.4750506,52.2625608 43.4750506,55.9625651 C43.4750506,62.9000732 49.025057,68.9125802 56.4250657,68.9125802 C63.8250743,68.9125802 69.3750807,63.3625737 69.3750807,55.9625651 C69.3750807,52.2625608 67.9875791,48.5625565 65.2125759,46.2500538 C64.2875748,45.3250527 64.2875748,43.9375511 65.2125759,42.5500495 C66.137577,41.6250484 67.9875791,41.6250484 68.9125802,42.5500495 C71.6875834,46.2500538 74.0000861,50.8750592 74.0000861,55.9625651 C74.0000861,66.137577 65.6750764,74.0000861 55.9625651,74.0000861 L55.9625651,74.0000861 Z" id="Path"></path>
                        <path d="M55.9625651,52.2625608 C54.5750635,52.2625608 53.1875619,50.8750592 53.1875619,49.4875576 L53.1875619,35.6125414 C53.1875619,34.2250398 54.5750635,32.8375382 55.9625651,32.8375382 C57.3500667,32.8375382 58.7375683,34.2250398 58.7375683,35.6125414 L58.7375683,49.4875576 C58.7375683,51.3375597 57.3500667,52.2625608 55.9625651,52.2625608 Z" id="Path"></path>
                    </g>
                </g>
            </g>
        </g>
    </g>
</svg>
