<?xml version="1.0" encoding="UTF-8"?>
<svg width="122px" height="122px" viewBox="0 0 122 122" version="1.1" xmlns="http://www.w3.org/2000/svg" xmlns:xlink="http://www.w3.org/1999/xlink">
    <!-- Generator: Sketch 55.2 (78181) - https://sketchapp.com -->
    <title>Group 6</title>
    <desc>Created with Sketch.</desc>
    <defs>
        <linearGradient x1="50%" y1="22.499744%" x2="50%" y2="63.839427%" id="linearGradient-1">
            <stop stop-color="#90BADD" offset="0%"></stop>
            <stop stop-color="#558AB7" offset="100%"></stop>
        </linearGradient>
    </defs>
    <g id="Page-1" stroke="none" stroke-width="1" fill="none" fill-rule="evenodd">
        <g id="主界面" transform="translate(-555.000000, -327.000000)">
            <g id="Group-6" transform="translate(555.000000, 327.000000)">
                <g id="Group-4">
                    <rect id="Rectangle-Copy-2" fill="url(#linearGradient-1)" x="0" y="0" width="122" height="122" rx="24"></rect>
                    <g id="工单" transform="translate(31.753425, 21.726027)"></g>
                </g>
                <path d="M82.4342073,25.0001754 L76.3099289,25.0001754 C75.8188315,25.0001754 75.3855137,25.3241504 75.2699578,25.7828571 C74.6825666,28.1933055 72.4485534,29.9022128 69.8775147,29.9022128 L53.0935726,29.9022128 C50.5225339,29.8932186 48.298147,28.1843134 47.7107565,25.7828571 C47.5952038,25.3151576 47.1522534,24.9913661 46.6611584,25.0001754 L40.5465149,25.0001754 C37.4843797,25.0093524 35.0096349,27.3928225 35,30.3339338 L35,85.6664243 C35.0096294,88.6075356 37.4843718,90.991008 40.5465149,91 L82.4534851,91 C85.5156203,90.9910058 87.9903651,88.6075356 88,85.6664243 L88,30.3339338 C87.9711119,27.3928225 85.4963663,25.0093502 82.434231,25.0001754 L82.4342073,25.0001754 Z M50.734375,44.6992142 C50.7733858,44.5528102 50.812395,44.4155557 50.8416523,44.2691517 C50.9879376,43.3724255 51.319516,42.5214471 51.8266376,41.7528236 L56.6637903,46.5018153 L59.2091441,44.0037908 L54.2452099,39.2456511 L57.0636344,38.3672285 L58.7312844,38.3672285 C59.7845353,38.5502337 60.8182783,38.8430425 61.725248,39.4103609 C64.3583753,41.048259 65.5579155,43.7841927 64.9532664,46.7671762 C64.8850001,47.0050832 64.9630188,47.2612908 65.158065,47.4168451 C66.9232386,49.1187944 68.6786541,50.8298993 70.4340697,52.5409967 C71.7896411,53.9043858 71.7701412,56.0729981 70.385308,57.408943 C69.0004787,58.7448805 66.7574455,58.754036 65.3531083,57.4363938 C63.6269506,55.7710442 61.8910349,54.1056945 60.1843771,52.4220488 C59.9698262,52.1658412 59.6187423,52.0560376 59.2871655,52.1383903 C55.9518735,52.8246604 52.4897922,50.9397036 51.3000099,47.9658681 C51.0464495,47.3344991 50.9294213,46.6573823 50.734375,45.9985579 L50.734375,44.6992201 L50.734375,44.6992142 Z M68.953125,78.8861081 C68.9434956,80.498428 67.6050082,81.810151 65.9487631,81.810151 L47.9418619,81.810151 C46.2856089,81.8010418 44.947127,80.498428 44.9375,78.8861081 C44.9471294,77.2737883 46.2856168,75.9620653 47.9418619,75.9620653 L65.9487631,75.9620653 C67.6050161,75.9620653 68.943498,77.2737883 68.953125,78.8861081 Z M79.71875,66.3544959 C79.70904,67.9668157 78.359343,69.2785388 76.6892272,69.2785388 L47.9670228,69.2785388 C46.296899,69.2694296 44.9472077,67.9668157 44.9375,66.3544959 C44.94721,64.7421761 46.296907,63.430453 47.9670228,63.430453 L76.6892272,63.430453 C78.359351,63.430453 79.7090423,64.7421761 79.71875,66.3544959 Z" id="Shape" fill="#FFFFFF" fill-rule="nonzero"></path>
            </g>
        </g>
    </g>
</svg>
