<?xml version="1.0" encoding="UTF-8"?>
<svg width="122px" height="122px" viewBox="0 0 122 122" version="1.1" xmlns="http://www.w3.org/2000/svg" xmlns:xlink="http://www.w3.org/1999/xlink">
    <!-- Generator: Sketch 55.2 (78181) - https://sketchapp.com -->
    <title>Group 5 Copy</title>
    <desc>Created with Sketch.</desc>
    <defs>
        <linearGradient x1="50%" y1="22.499744%" x2="50%" y2="63.839427%" id="linearGradient-1">
            <stop stop-color="#90BADD" offset="0%"></stop>
            <stop stop-color="#558AB7" offset="100%"></stop>
        </linearGradient>
    </defs>
    <g id="Page-1" stroke="none" stroke-width="1" fill="none" fill-rule="evenodd">
        <g id="主界面" transform="translate(-314.000000, -561.000000)">
            <g id="Group-5-Copy" transform="translate(314.000000, 561.000000)">
                <rect id="Rectangle" fill="url(#linearGradient-1)" x="0" y="0" width="122" height="122" rx="24"></rect>
                <path d="M91.1482821,42.8440644 L85.3707052,42.8440644 C84.2151899,42.8440644 83.0596745,42.4582495 83.0596745,40.9149899 C83.0596745,39.3717304 84.2151899,38.9859155 85.3707052,38.9859155 L92.6889693,38.9859155 C93.8444846,38.9859155 95,40.1433602 95,41.3008048 L95,90.2992958 C95,91.8425553 93.8444846,93 92.3037975,93 L36.4538879,93 C35.2983725,93 34.1428571,91.4567404 34.1428571,90.2992958 C34.1428571,89.1418511 35.2983725,89.1418511 36.4538879,89.1418511 L91.1482821,89.1418511 L91.1482821,42.8440644 Z M68.5466089,31.6619718 L52.5844156,31.6619718 L52.5844156,28 L70.1038961,28 L68.5466089,31.6619718 Z M71.9480519,38.9859155 L72.6857143,39.3583194 L75.6363636,39.3583194 L75.6363636,60.9577465 L71.9480519,60.9577465 L71.9480519,38.9859155 Z M41.5194805,40.8169014 L41.5194805,62.7887324 L37.8311688,62.7887324 L37.8311688,40.8169014 L41.5194805,40.8169014 Z M64.5714286,31.6619718 L37.8311688,31.6619718 L37.8311688,38.9859155 L64.5714286,38.9859155 L64.5714286,31.6619718 Z M68.2977641,31.2957746 L68.2977641,38.9859155 C68.2977641,41.1830986 66.738787,42.6478873 64.4003213,42.6478873 L37.118222,42.6478873 C34.7797563,42.6478873 33.2207792,41.1830986 33.2207792,38.9859155 L33.2207792,31.2957746 C33.2207792,29.4647887 34.7797563,28 36.7284777,28 L71.025974,28 C69.0772526,28 68.2977641,29.4647887 68.2977641,31.2957746 L68.2977641,31.2957746 Z M92.1675488,93 L36.3846494,93 C35.6205001,93 34.8563508,92.6134585 34.4742761,91.8403756 L24.1582605,60.5305164 C23.7761858,59.7574335 24.1582605,59.370892 24.5403352,58.5978091 C24.9224098,58.2112676 25.3044845,58.2112676 26.0686338,58.2112676 L82.9977571,58.2112676 C83.7619064,58.2112676 84.5260557,58.5978091 84.9081304,59.7574335 L94.0779221,91.0672926 C94.0779221,91.8403756 94.0779221,92.2269171 93.6958474,92.6134585 C93.3137728,93 92.5496235,93 92.1675488,93 Z M37.4693408,89.3380282 L89.4675325,89.3380282 L81.7640967,62.7887324 L28.6103896,62.7887324 L37.4693408,89.3380282 Z M71.9480519,42.6478873 L71.9480519,34.7301104 C71.9480519,33.146555 71.2103896,31.9588885 70.1038961,31.9588885 C68.9974026,31.9588885 68.2597403,33.146555 68.2597403,34.7301104 L68.2597403,39.8766654 L64.5714286,39.8766654 L64.5714286,35.9177769 C64.5714286,31.5629996 66.4155844,28 70.1038961,28 C73.7922078,28 75.6363636,31.5629996 75.6363636,35.9177769 L75.6363636,42.2519985 L71.9480519,42.2519985 L71.9480519,42.6478873 Z" id="Shape" fill="#FFFFFF" fill-rule="nonzero"></path>
            </g>
        </g>
    </g>
</svg>
