<?xml version="1.0" encoding="UTF-8"?>
<svg width="122px" height="122px" viewBox="0 0 122 122" version="1.1" xmlns="http://www.w3.org/2000/svg" xmlns:xlink="http://www.w3.org/1999/xlink">
    <!-- Generator: Sketch 55.2 (78181) - https://sketchapp.com -->
    <title>Group 3</title>
    <desc>Created with Sketch.</desc>
    <defs>
        <linearGradient x1="50%" y1="22.499744%" x2="50%" y2="63.839427%" id="linearGradient-1">
            <stop stop-color="#90BADD" offset="0%"></stop>
            <stop stop-color="#558AB7" offset="100%"></stop>
        </linearGradient>
    </defs>
    <g id="Page-1" stroke="none" stroke-width="1" fill="none" fill-rule="evenodd">
        <g id="主界面" transform="translate(-314.000000, -327.000000)">
            <g id="Group-3" transform="translate(314.000000, 327.000000)">
                <rect id="Rectangle-Copy" fill="url(#linearGradient-1)" x="0" y="0" width="122" height="122" rx="24"></rect>
                <path d="M46.2499999,61.3636364 L46.25,61.3636364 C44.8611662,61.3636364 43.7352941,62.6813452 43.7352941,64.3068192 C43.7352941,65.9322932 44.8611662,67.25 46.25,67.25 C47.6388338,67.25 48.7647059,65.9322932 48.7647059,64.3068192 C48.7647059,64.3068192 48.7647059,64.3068192 48.7647059,64.3068192 L48.7647059,64.3068247 C48.7510804,62.6879983 47.633154,61.3795876 46.25,61.3636364 L46.2499999,61.3636364 Z M46.2499998,73.1363636 L46.2499999,73.1363636 C44.8611661,73.1363636 43.7352941,74.4540709 43.7352941,76.0795455 C43.7352941,77.70502 44.8611661,79.0227273 46.2499999,79.0227273 C47.6388337,79.0227273 48.7647059,77.70502 48.7647059,76.0795455 C48.7647059,76.0795454 48.7647059,76.0795454 48.7647059,76.0795454 L48.7647059,76.0795608 C48.7527606,74.4599114 47.6338632,73.1503609 46.250013,73.1363636 L46.2499998,73.1363636 Z M46.2497655,49.5914482 L46.2497657,49.5914482 C44.8610612,49.591448 43.7352941,50.9090347 43.7352941,52.5343604 C43.7352941,54.1596862 44.8610612,55.4772727 46.2497657,55.4772727 C47.6384701,55.4772727 48.7642372,54.1596862 48.7642372,52.5343604 C48.7642372,52.5343604 48.7642372,52.5343604 48.7642372,52.5343604 L48.7642372,52.5343589 C48.7905284,50.9398011 47.7073889,49.6222145 46.3449731,49.5914466 C46.313239,49.5907299 46.2814959,49.5907299 46.2497618,49.5914467 L46.2497655,49.5914482 Z M86.5595274,32.5854436 L79.6881211,32.5854436 L79.6881211,31.0492133 L79.6881211,31.0492119 C79.6829212,30.1443593 79.0194834,29.4155241 78.206297,29.4213126 C78.2041474,29.4213279 78.2019978,29.4213484 78.1998483,29.4213742 L70.0935074,29.4213742 L70.0935074,29.4213742 C69.7000175,27.4563556 68.7972384,25.6628884 67.4969428,24.2630306 L67.4969428,24.2630306 C63.6951301,19.962473 57.4800414,19.9055493 53.6150824,24.1358813 C53.5766797,24.1779149 53.5385886,24.2202992 53.5008131,24.2630306 L53.5008129,24.2630308 C52.1901586,25.6539783 51.2854967,27.4511816 50.9042484,29.4213744 L42.8612291,29.4213744 L42.8612291,29.4213744 C42.0371319,29.4181006 41.3551219,30.1336217 41.3096213,31.0492159 L41.3096213,32.5854462 L34.53323,32.5854462 L34.5332299,32.5854462 C33.1341655,32.5854463 32,33.8474502 32,35.4042112 L32,92.1812346 L32,92.1812351 C32,93.7379961 33.1341655,95 34.5332299,95 L86.559471,95 L86.5594711,95 C87.9269006,94.9770557 89.0187088,93.7249883 88.9980887,92.2034206 C88.9979884,92.196023 88.9978614,92.1886258 88.9977076,92.1812294 L88.9977076,35.3901141 L88.9977076,35.3901138 C89.0554347,33.8989483 88.0158582,32.6380501 86.6757447,32.5738204 C86.6370099,32.5719638 86.598241,32.5711395 86.5594706,32.5713482 L86.5595274,32.5854436 Z M83.8758896,89.1136364 L37.0294118,89.1136364 L37.0294118,37.8181818 L41.3226185,37.8181818 L41.3226185,39.3569767 L41.3226185,39.3569739 C41.3340755,40.2730078 42.0075675,41.0052168 42.8269009,40.9924117 C42.8410836,40.99219 42.8552628,40.9917409 42.869434,40.9910645 L78.0989979,40.9910645 L78.098998,40.9910645 C78.9096491,41.0008187 79.5738862,40.2740031 79.5826074,39.367679 C79.5826417,39.3641132 79.5826656,39.3605472 79.5826792,39.3569811 L79.5826792,37.8181818 L83.9705882,37.8181818 L83.9705882,89.1030724 L83.8758853,89.1030724 L83.8758896,89.1136364 Z M75.6890534,50.4318182 L53.5980236,50.4318182 L53.5980235,50.4318182 C52.3220289,51.0733114 51.7638918,52.7228066 52.3513903,54.1160696 C52.6050269,54.7175715 53.0471475,55.200321 53.5980235,55.4772727 L75.6890533,55.4772727 L75.6890532,55.4772727 C76.6417689,55.0743984 77.2683698,54.0718541 77.2647059,52.956299 L77.2647059,52.9563008 C77.2307623,51.8529157 76.6171699,50.8698126 75.6890599,50.4318182 L75.6890534,50.4318182 Z M75.6891028,73.9772727 L53.5988207,73.9772727 L53.5988208,73.9772727 C52.6692986,74.4016697 52.0781202,75.4270901 52.1197076,76.5428793 L52.1197075,76.5428813 C52.0780744,77.6380402 52.6749477,78.6387393 53.5988274,79.0227273 L75.6891095,79.0227273 L75.6891094,79.0227273 C76.6357651,78.6530794 77.2680428,77.657923 77.2647059,76.5428813 L77.2647059,76.5428778 C77.2549949,75.4121893 76.6330493,74.3994418 75.6891094,73.9772727 L75.6891028,73.9772727 Z M75.6883951,62.2045455 L53.6015033,62.2045455 L53.6015035,62.2045455 C52.6557184,62.6015376 52.0564808,63.6237397 52.1226173,64.7272719 L52.1226172,64.7272735 C52.0806205,65.8238614 52.6716195,66.8320007 53.6015101,67.25 L75.6884018,67.25 L75.6884017,67.25 C76.6575885,66.8685819 77.2928946,65.8512142 77.2637431,64.7272735 L77.2637432,64.7272754 C77.229822,63.624657 76.6163446,62.642237 75.6884084,62.2045455 L75.6883951,62.2045455 Z" id="Shape" fill="#FFFFFF" fill-rule="nonzero"></path>
            </g>
        </g>
    </g>
</svg>
