<?xml version="1.0" encoding="UTF-8"?>
<svg width="122px" height="122px" viewBox="0 0 122 122" version="1.1" xmlns="http://www.w3.org/2000/svg" xmlns:xlink="http://www.w3.org/1999/xlink">
    <!-- Generator: Sketch 55.2 (78181) - https://sketchapp.com -->
    <title>Group 2</title>
    <desc>Created with Sketch.</desc>
    <defs>
        <linearGradient x1="50%" y1="22.499744%" x2="50%" y2="63.839427%" id="linearGradient-1">
            <stop stop-color="#90BADD" offset="0%"></stop>
            <stop stop-color="#558AB7" offset="100%"></stop>
        </linearGradient>
    </defs>
    <g id="Page-1" stroke="none" stroke-width="1" fill="none" fill-rule="evenodd">
        <g id="主界面" transform="translate(-73.000000, -327.000000)">
            <g id="Group-2" transform="translate(73.000000, 327.000000)">
                <rect id="Rectangle" fill="url(#linearGradient-1)" x="0" y="0" width="122" height="122" rx="24"></rect>
                <g id="编组" transform="translate(33.000000, 27.000000)" fill="#FFFFFF" stroke="#FFFFFF" stroke-width="2">
                    <path d="M13.5164749,19.6138134 L13.516475,19.6138134 C12.5763059,19.622614 11.8070296,18.8666425 11.7981617,17.9253007 C11.7981617,17.9133731 11.7981617,17.9014447 11.7981617,17.8895173 C11.7981617,16.924546 12.5527009,16.1691811 13.5164701,16.1691811 L37.5554201,16.0663561 C38.5231368,16.0663561 39.2776431,16.8217209 39.2776431,17.7866923 L39.2776431,17.7866939 C39.2863559,18.7280357 38.5313271,19.4982716 37.591158,19.5070695 C37.5792453,19.507181 37.5673317,19.5071673 37.5554193,19.5070283 L13.5164692,19.6138079 L13.5164749,19.6138134 Z M13.5480739,30.7070382 L13.548074,30.7070382 C12.6079049,30.7158159 11.8386483,29.9598278 11.829807,29.018486 C11.829807,29.0078907 11.829807,28.9972947 11.829807,28.9866994 C11.829807,28.0217281 12.5882589,27.2624042 13.548074,27.2624042 L37.5909584,27.1595791 C38.5547276,27.1595791 39.3092269,27.918903 39.3092269,28.8838744 L39.3092269,28.883878 C39.3179161,29.8252198 38.5628654,30.595436 37.6226964,30.6042142 C37.6121142,30.604313 37.6015314,30.604313 37.5909493,30.6042142 L13.5480648,30.7070392 L13.5480739,30.7070382 Z M1.99469977,67.921763 L1.99469986,67.921763 C1.54566201,67.9243156 1.11337704,67.7511854 0.789985126,67.4392489 L0.789985227,67.439249 C0.469687096,67.1186472 0.285684131,66.6864053 0.276501131,66.2330315 L4.27422867e-06,2.69516852 L4.27422867e-06,2.69513945 C-0.00232797535,1.75503198 0.747895745,0.986306174 1.68663526,0.96691798 L50.973132,0.761269185 C51.4194676,0.761269185 51.8658057,0.93528036 52.1778468,1.24375487 C52.485937,1.55222937 52.6913302,2.00307875 52.6913302,2.44997235 L52.7625043,21.092906 L52.7625043,21.0929076 C52.771217,22.0342494 52.0161882,22.8044853 51.0760192,22.8132832 C51.0641065,22.8133947 51.0521929,22.813381 51.0402804,22.813242 L51.0402804,22.813242 C50.1001114,22.8220197 49.3308548,22.0660317 49.3220875,21.1246899 C49.3219888,21.1140945 49.3219888,21.1034985 49.3220875,21.0929032 L49.2549409,4.17028603 L3.4403318,4.41548398 L3.71682314,64.4770628 L20.7407843,64.4058767 C21.7045535,64.4058767 22.4589772,65.1652006 22.4589772,66.1262129 L22.4589773,66.1262174 C22.4699232,67.0675329 21.7166585,67.8395087 20.7765157,67.8504667 C20.7646032,67.8506055 20.7526897,67.8506192 20.7407769,67.8505076 L1.99864247,67.9177393 L1.99864247,67.921763 L1.99469977,67.921763 Z" id="Shape" fill-rule="nonzero"></path>
                    <path d="M18.7429211,51.7831232 L20.563623,53.7124205 C21.2815912,54.4378674 21.2815912,55.6691707 20.563623,56.4338341 L20.5636231,56.433834 C19.9534193,57.1290221 18.8886735,57.2035687 18.1854498,56.6003381 C18.1254059,56.5488321 18.0691225,56.4931919 18.017021,56.433834 L13.0983534,51.2576648 L13.0983532,51.2576646 C12.7593878,50.8892026 12.5688614,50.4106557 12.562853,49.9126438 L12.562853,49.9126451 C12.5531596,49.4117173 12.7458873,48.9276428 13.0983526,48.5676243 L17.9416581,43.3522386 L17.9416582,43.3522385 C18.2754713,42.9690078 18.7589853,42.7449952 19.2704914,42.7365778 L19.2704914,42.7365778 C19.7542412,42.7348795 20.2136503,42.946151 20.5239559,43.3130252 C21.2419241,44.0816076 21.2419241,45.2658564 20.5239559,46.0383578 L18.7389529,47.9480534 L30.0320725,47.8774689 C31.0356383,47.8774689 31.8250043,48.7205588 31.8250043,49.7950026 C31.8250043,50.8655274 31.0316674,51.7125363 30.0320725,51.7125363 L18.7389529,51.7791992 L18.7429196,51.7831205 L18.7429211,51.7831232 Z" id="Path"></path>
                    <path d="M51.6454669,32.1306031 C58.7018364,32.8192012 64.2089865,38.7021368 64.2089865,45.8547898 L64.2089865,59.6466421 L65.6044947,59.6466421 L65.6044946,59.6466421 C66.3664537,59.6378212 66.9912266,60.2543493 67.0000043,61.0236996 C67.0000043,61.0250736 67.0000043,61.0264477 67.0000043,61.0278217 L67.0000043,61.0278213 C66.9913462,61.797169 66.3666372,62.4137599 65.6046794,62.4050175 C65.6046193,62.4050168 65.6045593,62.4050161 65.6044992,62.4050155 L55.832022,62.4050155 C55.832022,65.4499742 53.3327213,67.921763 50.249996,67.921763 C47.1672641,67.921763 44.6679699,65.4539522 44.6679699,62.4050155 L34.891566,62.4050155 L34.8915661,62.4050155 C34.1310729,62.4116473 33.5086627,61.7956689 33.5000043,61.0278192 L33.5000043,61.0278184 C33.5064862,60.2584509 34.1294486,59.640056 34.8914286,59.6466045 C34.8927895,59.6466162 34.8941504,59.6466299 34.8955113,59.6466457 L36.2910194,59.6466457 L36.2910194,45.8547933 C36.2910194,38.7021139 41.7981499,32.8231894 48.8545391,32.1306067 L48.8545391,30.6817667 L48.8545391,30.6817672 C48.8631972,29.9124195 49.4879062,29.2958286 50.249864,29.3044791 C50.249924,29.3044791 50.249984,29.3044791 50.2500441,29.3044791 L50.2500441,29.3044791 C51.0120032,29.2957302 51.6367891,29.9122405 51.6455522,30.6815842 C51.6455529,30.6816448 51.6455536,30.6817055 51.6455543,30.6817661 L51.6455543,32.1306061 L51.6454669,32.1306031 Z M61.4218708,59.6466421 L61.4218708,45.8547898 C61.4218708,39.7608943 56.419336,34.8213079 50.2499129,34.8213079 C44.0805094,34.8213079 39.077955,39.7609075 39.077955,45.8547898 L39.077955,59.6466421 L61.4178786,59.6466421 L61.4218708,59.6466421 Z M53.0448854,62.4089972 L47.4589097,62.4089972 L47.4589097,62.4089972 C47.4740234,63.9477198 48.7216753,65.1827255 50.2456197,65.1674676 C50.2483696,65.1674401 50.2511195,65.1674084 50.2538694,65.1673726 L50.2538693,65.1673726 C51.7777875,65.1850349 53.0273463,63.9519926 53.0448854,62.4133039 C53.0448854,62.4118701 53.0448854,62.4104363 53.0448854,62.4089972 L53.0448854,62.4089972 Z" id="Shape" fill-rule="nonzero"></path>
                </g>
            </g>
        </g>
    </g>
</svg>
