<?xml version="1.0" standalone="no"?><!DOCTYPE svg PUBLIC "-//W3C//DTD SVG 1.1//EN" "http://www.w3.org/Graphics/SVG/1.1/DTD/svg11.dtd"><svg t="1544513359962" class="icon" style="" viewBox="0 0 1024 1024" version="1.1" xmlns="http://www.w3.org/2000/svg" p-id="9964" xmlns:xlink="http://www.w3.org/1999/xlink" width="200" height="200"><defs><style type="text/css"></style></defs><path d="M728.682777 453.798448v26.071651c0.264687-5.558423 0.39703-14.690118 0-26.071651z" fill="#73B9FF" p-id="9965"></path><path d="M511.904283 3.50002a508.595698 508.595698 0 0 0-322.057671 902.184978 195.537378 195.537378 0 0 1 153.121317-106.53644l-0.529374-1.124919 58.892814-40.827939v-56.709149A222.866291 222.866291 0 0 1 280.568014 583.296468c-15.020976 2.117494-48.967059 2.117494-54.128452-39.703021s23.292439-48.305342 35.732719-48.834715v-32.556478c-1.058747 7.609746-1.985151 15.418006-2.779211 23.68947 0 0-119.109063-258.069636 45.52613-297.772657 0 0 73.649104-171.186192 342.438556-70.274347 246.158729 103.161683 88.802423 355.937582 81.391192 367.583802v5.095221c13.763714 2.051323 34.806315 11.183018 30.30664 48.305342s-30.306639 41.22497-46.981908 40.563253a222.866291 222.866291 0 0 1-123.410224 121.491244v57.834067l0.727889-0.727889 58.892814 40.82794v0.463202a195.669721 195.669721 0 0 1 160.863407 125.726233A508.529526 508.529526 0 0 0 511.904283 3.50002z" fill="#73B9FF" p-id="9966"></path><path d="M807.294758 930.168527l-1.521949-4.036473a193.28754 193.28754 0 0 0-158.150367-123.542567l-4.632019-0.529374 1.058747-2.117494-54.194623-37.585527-4.433504 4.632019v-68.355367l2.117494-0.794061a219.954736 219.954736 0 0 0 121.623588-119.704608l0.860232-2.117494h2.316009c17.535501 0.661717 39.703021-5.227564 43.607152-37.651698s-12.771138-42.416061-27.527428-44.665899l-2.779212-0.39703v-8.867008l0.529374-0.79406c3.308585-5.227564 81.192678-129.299505 47.246595-237.821095-17.138471-54.790169-59.88539-96.809199-127.049667-124.932173C383.795869 22.358955 308.690987 187.722037 307.963099 189.442501l-0.661717 1.521949-1.588121 0.39703c-33.681396 8.139119-57.635552 26.468681-71.134579 54.326967-34.938658 72.127155 7.742089 189.978955 22.895408 227.233623 0.39703-3.573272 0.926404-7.278887 1.455778-11.183017l6.61717 0.463201v35.534204h-3.90413v0.595545-0.529373a34.938658 34.938658 0 0 0-24.549702 10.852159c-6.61717 7.675917-8.867008 19.189793-7.0142 34.21077A42.349889 42.349889 0 0 0 244.835295 572.907511a48.768544 48.768544 0 0 0 35.600376 7.146544l2.514525-0.330859 0.992575 2.31601a220.616453 220.616453 0 0 0 119.109063 115.403447l2.051322 0.860232v60.679451l-57.96641 40.166222 1.323434 2.779212-4.632019 0.529373a191.103874 191.103874 0 0 0-150.540621 104.749804l-1.852808 3.705615-3.176241-2.646868a511.970454 511.970454 0 1 1 623.006569 19.388309z m-157.091619-133.997695a200.037054 200.037054 0 0 1 160.135517 123.807253 505.220941 505.220941 0 1 0-621.550792-19.189793 197.588701 197.588701 0 0 1 150.342106-104.551288l58.826643-40.82794v-52.937361a227.365966 227.365966 0 0 1-119.109063-115.800478 53.731422 53.731422 0 0 1-38.048728-8.734665 48.636201 48.636201 0 0 1-17.336986-34.409284c-2.051323-16.939956 0.79406-30.174296 8.536149-39.305991a40.298566 40.298566 0 0 1 26.468681-13.23434l-1.985151-4.234989c-2.911555-6.61717-70.869892-155.635842-27.858286-244.835296 14.226916-29.314064 39.107476-48.702372 74.046134-57.503208C311.006997 168.333728 393.523109 18.984198 648.482674 114.73465c69.149428 28.983205 113.219781 72.391841 130.953798 129.167161 33.813739 108.058389-39.703021 230.277521-47.44511 242.519286v1.389606c14.491603 3.043898 34.872487 13.896057 30.240467 51.481584s-30.836013 43.607151-48.106827 43.540979a226.704249 226.704249 0 0 1-122.285304 120.366325v52.606503z" fill="#73B9FF" p-id="9967"></path><path d="M647.887129 799.21473l-58.628127 123.079365-94.162332-66.171702 3.705616-3.837958h-6.61717l2.977726 3.11007-94.162331 66.171701-58.297269-122.351476a195.537378 195.537378 0 0 0-153.121317 106.536439 508.264839 508.264839 0 0 0 618.970095 19.255966 195.669721 195.669721 0 0 0-160.664891-125.792405z" fill="#D7D1CD" p-id="9968"></path><path d="M511.904283 1024a512.830686 512.830686 0 0 1-324.241338-115.734306l-2.051322-1.654292 1.19109-2.382182a197.654872 197.654872 0 0 1 155.702014-108.323075h2.316009l57.635552 120.96187 87.809848-61.672025-5.690766-5.955454h21.836661l-6.61717 6.617171 87.47899 61.47351 57.96641-121.623587h2.31601a199.970882 199.970882 0 0 1 163.642617 127.843727l0.860233 2.382181-2.051323 1.455778a508.198667 508.198667 0 0 1-298.103515 96.610684z m-317.624167-119.109063a504.956254 504.956254 0 0 0 610.830976 18.925107 193.419883 193.419883 0 0 0-154.907953-120.96187l-59.554532 124.46897-95.882795-67.428964L399.941764 926.595255l-59.025158-123.807253a191.037702 191.037702 0 0 0-146.901177 102.036764z" fill="#D7D1CD" p-id="9969"></path><path d="M492.449802 852.218263h6.617171l89.794998-93.566786v-57.834067a218.697473 218.697473 0 0 1-80.729475 15.418006H483.053421a218.697473 218.697473 0 0 1-81.788223-15.881208v56.709148zM262.172281 494.560216c-12.44028 0.529374-40.960283 6.22014-35.732719 48.834716s39.107476 42.01903 54.128452 39.703021a218.763645 218.763645 0 0 1-18.395733-87.809848zM712.007508 579.392338c16.675269 0.661717 42.548404-4.301161 46.981908-40.563253s-16.542925-46.320191-30.306639-48.305342v4.962877a218.763645 218.763645 0 0 1-16.675269 83.905718z" fill="#F1BFA0" p-id="9970"></path><path d="M507.867809 716.301588a218.697473 218.697473 0 0 0 80.729476-15.418006 222.866291 222.866291 0 0 0 123.410223-121.491244 218.763645 218.763645 0 0 0 16.675269-83.905718v-10.058098-31.630074c-1.654293-49.959635-14.028401-140.747209-82.979314-151.533196 0 0 47.974484 20.711743-5.756938 88.537737 0 0-34.409285-22.630722-121.557416-27.262741C425.682556 358.511198 358.650622 297.964091 358.650622 297.964091s-75.104881 9.33021-96.478341 164.238163v33.085851a218.763645 218.763645 0 0 0 18.395733 88.008363 222.866291 222.866291 0 0 0 120.697184 117.123912 218.697473 218.697473 0 0 0 81.788223 15.881208zM379.362365 519.374605a41.754344 41.754344 0 1 1 41.754343-41.754344 41.754344 41.754344 0 0 1-41.754343 41.754344z m192.294964-39.703021a41.754344 41.754344 0 1 1 41.754344 41.754343 41.754344 41.754344 0 0 1-41.820516-41.688172z m120.763355 77.553234c0 11.315361-22.56455 20.447056-50.489008 20.447056s-50.422837-9.197867-50.422836-20.447056S614.07339 536.843934 641.865504 536.843934s50.489008 9.131695 50.489009 20.447055zM562.459463 420.381739c16.34441-30.438983 74.244649-27.328913 95.882795-25.012903a4.301161 4.301161 0 0 1 2.051323 7.808261c-19.255965 13.23434-73.781447 20.910258-93.500614 23.292439a4.301161 4.301161 0 0 1-4.433504-6.087797zM484.906228 549.813587a10.587472 10.587472 0 0 1 10.521301-10.5213 10.587472 10.587472 0 0 1 10.521301 10.5213v10.785988a10.587472 10.587472 0 0 1-10.521301 10.5213 10.587472 10.587472 0 0 1-10.521301-10.5213z m-27.593599 58.628128a6.61717 6.61717 0 0 1 10.058099-0.529374c4.234989 3.837959 13.23434 8.337634 30.703669 8.668493A41.357313 41.357313 0 0 0 526.131198 608.971088a6.61717 6.61717 0 0 1 10.852159 3.705616c1.124919 9.793412-3.771787 21.969005-33.615224 24.483529-39.438334 3.5071-57.106178-13.631371-46.055504-28.718518zM334.167092 393.317513c21.638146-2.31601 79.406042-5.492251 95.882796 25.012903a4.301161 4.301161 0 0 1-4.433504 6.153969c-19.85151-2.382181-74.244649-10.058099-93.500614-23.292439a4.301161 4.301161 0 0 1 2.051322-7.874433zM350.710018 575.885238c-27.858286 0-50.422837-9.197867-50.422837-20.447056s22.630722-20.711743 50.422837-20.711743 50.489008 9.197867 50.489008 20.447056S378.700648 575.885238 350.710018 575.885238z" fill="#F9CFB3" p-id="9971"></path><path d="M507.867809 719.610173H483.053421a221.609028 221.609028 0 0 1-82.979314-16.079723 227.299795 227.299795 0 0 1-122.483819-119.109063 221.211998 221.211998 0 0 1-18.66042-89.199454v-33.08585c21.505803-156.099044 96.213654-166.951203 99.257552-167.348233h1.521949l1.124919 0.992575c0.661717 0.595545 67.29662 59.554531 157.620993 64.517409 74.840194 4.036474 110.969943 20.976429 120.56484 26.468681 18.329561-23.821813 25.939307-44.665898 21.969005-60.480935a32.159447 32.159447 0 0 0-16.675269-20.645571l-24.020327-10.322786 25.806963 4.036474c70.472862 11.050674 83.971889 101.639733 86.023212 154.709438v41.754344a221.410513 221.410513 0 0 1-16.939955 85.229151 226.638078 226.638078 0 0 1-125.263031 123.27788 221.741372 221.741372 0 0 1-82.05291 15.285663zM357.724218 301.669707c-10.058099 2.31601-73.11973 22.299863-92.243352 160.929578v33.08585a214.661 214.661 0 0 0 18.131047 86.486414 220.616453 220.616453 0 0 0 119.109062 115.403448A214.991858 214.991858 0 0 0 483.053421 712.993003h24.814388a215.05803 215.05803 0 0 0 79.406042-15.219491 220.020907 220.020907 0 0 0 121.623587-119.704608 214.859515 214.859515 0 0 0 16.476754-81.060335l-0.926404 1.455778 0.661717-12.83731v-31.828589c-1.588121-46.849565-12.506452-124.336627-65.509985-144.386652a37.651698 37.651698 0 0 1 7.874433 15.020976c4.565847 18.197218-3.308585 40.563253-23.490954 66.634903 5.756938 0 10.852159 0.727889 15.020976 1.191091a7.609746 7.609746 0 0 1 6.61717 5.756938 7.543574 7.543574 0 0 1-3.043898 8.072948c-19.85151 13.23434-72.788872 21.174944-95.022563 23.887984a7.675917 7.675917 0 0 1-7.278888-3.308585 7.345059 7.345059 0 0 1-0.463201-7.675918c12.374108-23.093924 46.320191-28.122973 72.788871-28.122973-12.572623-6.153968-48.172999-20.380884-114.675559-23.887984-85.626182-4.764363-150.474449-57.040007-160.201689-65.311469z m207.911486 120.300153a0.727889 0.727889 0 0 0 0 0.79406 1.191091 1.191091 0 0 0 0.992576 0.463202c16.807612-2.051323 72.788872-9.72724 92.044837-22.763065a0.860232 0.860232 0 0 0 0.39703-0.992576 0.992576 0.992576 0 0 0-0.860232-0.79406c-17.800188-1.918979-76.957689-5.955453-92.640382 23.226267zM494.104095 641.130535c-20.248541 0-35.666547-5.756938-41.22497-15.748865a16.74144 16.74144 0 0 1 1.786636-18.858935 9.33021 9.33021 0 0 1 6.61717-3.705615 10.852159 10.852159 0 0 1 8.271463 2.71304c3.705615 3.374757 11.646219 7.543574 28.520003 7.808261a39.703021 39.703021 0 0 0 25.939307-6.617171 10.256614 10.256614 0 0 1 10.388957-1.58812 9.197867 9.197867 0 0 1 5.889282 7.477402 20.314712 20.314712 0 0 1-4.301161 15.748865c-5.690766 6.61717-16.542925 11.050674-32.225619 12.374108q-5.029049 0.39703-9.661068 0.39703z m-34.144598-30.703669a10.455129 10.455129 0 0 0-1.323434 11.712391C462.474022 628.822599 476.436251 636.300001 502.904931 634.116335c13.896057-1.124919 23.160096-4.499676 27.659771-9.925755a13.896057 13.896057 0 0 0 2.911555-10.785988 2.71304 2.71304 0 0 0-1.786636-2.117494 3.639444 3.639444 0 0 0-3.705615 0.529373 44.864414 44.864414 0 0 1-30.240467 8.205291c-18.925107-0.330859-28.321488-5.359908-33.085851-9.528725a4.301161 4.301161 0 0 0-3.11007-0.992575 2.845383 2.845383 0 0 0-1.985151 1.058747zM641.865504 581.04663c-30.637498 0-53.731422-10.190442-53.731421-23.755641s23.160096-23.755641 53.731421-23.75564 53.731422 10.190442 53.731422 23.75564-23.027752 23.755641-53.731422 23.755641z m0-40.960283c-27.792115 0-47.114251 9.065523-47.114251 17.138471s19.388309 17.138471 47.180423 17.13847 47.114251-9.065523 47.114251-17.13847-19.322137-17.072299-47.180423-17.072299z m-291.155486 38.842789c-30.637498 0-53.731422-10.190442-53.731422-23.755641s23.093924-23.755641 53.797594-23.755641 53.797593 10.190442 53.797593 23.755641-23.093924 23.755641-53.863765 23.755641z m0-40.960283c-27.792115 0-47.114251 9.065523-47.114252 17.13847s19.388309 17.138471 47.180424 17.138471 47.180423-9.065523 47.180423-17.138471-19.388309-17.072299-47.246595-17.072299z m144.651339 36.394435a13.896057 13.896057 0 0 1-13.829885-13.829885v-10.719816a13.829886 13.829886 0 0 1 27.725943 0v10.785988a13.896057 13.896057 0 0 1-13.829886 13.829885z m0-31.828588a7.212715 7.212715 0 0 0-7.212715 7.212716v10.785987a7.212715 7.212715 0 0 0 14.491602 0v-10.719816A7.212715 7.212715 0 0 0 495.427529 542.799387z m118.050316-17.734016a45.062929 45.062929 0 1 1 45.062928-45.062929 45.1291 45.1291 0 0 1-45.062928 45.062929z m0-83.508687a38.445759 38.445759 0 1 0 38.445758 38.445758 38.51193 38.51193 0 0 0-38.445758-38.445758zM379.362365 522.947876a45.062929 45.062929 0 1 1 45.062928-45.062928A45.1291 45.1291 0 0 1 379.362365 522.947876z m0-83.508687a38.445759 38.445759 0 1 0 38.445758 38.445759 38.51193 38.51193 0 0 0-38.445758-38.710446z m46.783393-11.381533h-0.926404C403.184177 425.013758 349.849786 417.073154 330.19679 403.838814a7.543574 7.543574 0 0 1-3.043898-8.072948 7.609746 7.609746 0 0 1 6.61717-5.756938c24.152671-2.580696 82.05291-5.227564 99.257552 26.468681a7.345059 7.345059 0 0 1-0.463201 7.675917 7.675917 7.675917 0 0 1-6.418655 3.573272zM334.497951 396.559927a0.992576 0.992576 0 0 0-0.860232 0.79406 0.860232 0.860232 0 0 0 0.39703 0.992576c18.925107 13.23434 75.237225 20.711743 92.044837 22.763065a1.191091 1.191091 0 0 0 0.992575-0.463202 0.727889 0.727889 0 0 0 0-0.79406c-15.682693-29.18172-74.840194-25.211418-92.640382-23.226268z" fill="#F9CFB3" p-id="9972"></path><path d="M358.650622 297.964091s67.031934 60.414763 159.672316 65.377641C605.53724 368.172267 639.880353 390.604473 639.880353 390.604473c53.731422-67.825994 5.82311-88.471565 5.82311-88.471564C714.654376 313.051239 727.028484 403.838814 728.682777 453.798448c0.39703 11.381533 0 20.513227 0 26.071651v6.021625-0.463202c7.477402-11.712391 164.767537-264.686806-81.391193-367.583802C378.502132 16.932875 304.9192 188.119067 304.9192 188.119067c-164.569022 39.703021-45.459959 297.772657-45.459959 297.772657 0.79406-8.337634 1.720464-16.145895 2.779212-23.68947C283.545741 307.294301 358.650622 297.964091 358.650622 297.964091z m-7.278887-120.035466S405.103156 53.128796 601.302251 126.645556c183.891158 77.090032 151.400853 159.275285 151.400853 159.275286s-49.628776-53.66525-164.304334-31.630074c0 0 35.071002 25.211418 35.269516 81.589708 0 0-31.233043-14.226916-94.824048-17.667844C461.216759 314.63936 390.413039 258.26107 390.413039 258.26107s-82.185253-24.946731-130.755282 72.127155c0 0-28.056801-123.476395 91.713978-152.4596z" fill="#282624" p-id="9973"></path><path d="M390.413039 258.26107s70.539034 56.37829 138.166512 60.017734c63.657177 3.440928 94.824048 17.667844 94.824049 17.667844 0-56.444461-35.269517-81.589708-35.269517-81.589708 114.675559-22.035177 164.304335 31.630073 164.304335 31.630073s32.490305-82.251425-151.400853-159.275285C405.103156 53.128796 351.371735 177.928625 351.371735 177.928625c-120.101638 28.983205-91.713978 152.194913-91.713978 152.194913C308.227785 233.314339 390.413039 258.26107 390.413039 258.26107z" fill="#403E3D" p-id="9974"></path><path d="M626.976872 341.041869l-4.962878-2.117494s-31.563902-14.028401-93.632958-17.336986C463.20191 317.815602 396.236148 266.79722 389.089605 261.238797c-7.874432-2.183666-81.391193-19.45448-126.454122 70.671377l-4.102645 8.205291-2.051323-9.065523c0-1.257262-27.527428-125.726233 92.640382-156.032872C356.334612 160.856326 417.543436 54.187543 602.162483 123.535486c184.883734 77.487062 154.643266 160.135518 153.319833 163.576446l-1.91898 4.896706-3.573271-3.837958c-0.463202-0.529374-47.974484-49.959635-154.510923-31.894761a108.918621 108.918621 0 0 1 31.166871 79.406042zM367.252943 252.239446a94.757877 94.757877 0 0 1 24.351186 2.845383l1.124919 0.595545c0.727889 0.529374 70.539034 55.782744 136.247534 59.554531A320.006348 320.006348 0 0 1 620.227358 331.049942c-2.183666-50.687523-33.482881-73.781447-33.81374-73.979962l-6.220139-4.499676 7.543574-1.455777c97.735603-18.792763 148.621642 16.145895 163.047072 28.586175 2.977727-18.726592 1.521949-86.023212-150.805308-149.945076-190.839187-71.663953-244.835295 48.371514-245.563184 49.562605l-0.661717 1.521949-1.588121 0.39703C254.297849 204.794336 257.341747 291.346921 261.312049 320.330126c32.622649-58.032582 78.214951-68.090681 105.940894-68.09068z" fill="#403E3D" p-id="9975"></path><path d="M626.976872 341.041869l-4.962878-2.117494s-31.563902-14.028401-93.632958-17.336986C463.20191 317.815602 396.236148 266.79722 389.089605 261.238797c-7.874432-2.183666-81.391193-19.45448-126.454122 70.671377l-4.102645 8.205291-2.051323-9.065523c0-1.257262-27.527428-125.726233 92.640382-156.032872C356.334612 160.856326 417.543436 54.187543 602.162483 123.535486c184.883734 77.487062 154.643266 160.135518 153.319833 163.576446l-1.91898 4.896706-3.573271-3.837958c-0.463202-0.529374-47.974484-49.959635-154.510923-31.894761a108.918621 108.918621 0 0 1 31.166871 79.406042zM367.252943 252.239446a94.757877 94.757877 0 0 1 24.351186 2.845383l1.124919 0.595545c0.727889 0.529374 70.539034 55.782744 136.247534 59.554531A320.006348 320.006348 0 0 1 620.227358 331.049942c-2.183666-50.687523-33.482881-73.781447-33.81374-73.979962l-6.220139-4.499676 7.543574-1.455777c97.735603-18.792763 148.621642 16.145895 163.047072 28.586175 2.977727-18.726592 1.521949-86.023212-150.805308-149.945076-190.839187-71.663953-244.835295 48.371514-245.563184 49.562605l-0.661717 1.521949-1.588121 0.39703C254.297849 204.794336 257.341747 291.346921 261.312049 320.330126c32.622649-58.032582 78.214951-68.090681 105.940894-68.09068zM332.11577 401.125774c19.255965 13.23434 73.781447 20.910258 93.500614 23.292439a4.301161 4.301161 0 0 0 4.433504-6.153968c-16.34441-30.438983-74.244649-27.328913-95.882796-25.012903a4.301161 4.301161 0 0 0-2.051322 7.874432z" fill="#403E3D" p-id="9976"></path><path d="M379.362365 435.865917a41.754344 41.754344 0 1 0 41.754343 41.754344 41.754344 41.754344 0 0 0-41.754343-41.754344z m16.675268 75.303397a10.322785 10.322785 0 0 1-10.322785-10.322786 10.190442 10.190442 0 0 1 1.257262-4.830534 19.85151 19.85151 0 0 1-24.814388-27.99063 12.83731 12.83731 0 1 1 17.800188-11.844734 12.572623 12.572623 0 0 1 0 1.720464 19.85151 19.85151 0 0 1 14.491603 33.085851h1.786635a10.322785 10.322785 0 1 1 0 20.64557z" fill="#5B361E" p-id="9977"></path><path d="M394.184826 490.656086a19.85151 19.85151 0 0 0-14.491603-33.085851 12.771138 12.771138 0 0 1-17.601673 10.124271 19.85151 19.85151 0 0 0-2.646868 9.661068 19.85151 19.85151 0 0 0 27.461257 18.329561 10.256614 10.256614 0 0 1 7.278887-5.029049z" fill="#341B0A" p-id="9978"></path><path d="M379.759395 457.834922a12.572623 12.572623 0 0 0 0-1.720464 13.23434 13.23434 0 1 0 0 1.720464zM396.037633 490.457571h-1.786636a10.190442 10.190442 0 1 0 1.786636 0z" fill="#FFFFFF" p-id="9979"></path><path d="M300.353353 555.173495a50.489008 20.447056 0 1 0 100.978016 0 50.489008 20.447056 0 1 0-100.978016 0Z" fill="#FFB7A4" p-id="9980"></path><path d="M567.157653 426.535707c19.85151-2.382181 74.244649-9.991927 93.500615-23.292439a4.301161 4.301161 0 0 0-2.051323-7.80826c-21.638146-2.31601-79.406042-5.492251-95.882796 25.012903a4.301161 4.301161 0 0 0 4.433504 6.087796z" fill="#403E3D" p-id="9981"></path><path d="M655.099845 479.737755a41.754344 41.754344 0 1 0-41.754344 41.754344A41.754344 41.754344 0 0 0 655.099845 479.737755z m-58.429613 33.482881a10.322785 10.322785 0 1 1 0-20.645571h1.786636a19.85151 19.85151 0 0 1 14.491603-33.08585A12.771138 12.771138 0 1 1 630.616315 470.010515a19.85151 19.85151 0 0 1 2.646868 9.661069 19.85151 19.85151 0 0 1-27.461256 18.329561 10.190442 10.190442 0 0 1 1.257262 4.830534 10.322785 10.322785 0 0 1-10.322785 10.388957z" fill="#5B361E" p-id="9982"></path><path d="M605.801927 498.067317A19.85151 19.85151 0 0 0 630.616315 470.010515a12.771138 12.771138 0 0 1-17.601673-10.12427 19.85151 19.85151 0 0 0-14.491602 33.085851 10.256614 10.256614 0 0 1 7.278887 5.095221z" fill="#341B0A" p-id="9983"></path><path d="M625.653437 471.069262a13.23434 13.23434 0 1 0-12.638795-11.116845 12.771138 12.771138 0 0 0 12.638795 11.116845zM598.52304 492.773581h-1.786636A10.322785 10.322785 0 1 0 607.059189 503.096366a10.455129 10.455129 0 0 0-8.536149-10.12427z" fill="#FFFFFF" p-id="9984"></path><path d="M591.442668 557.290989a50.489008 20.447056 0 1 0 100.978016 0 50.489008 20.447056 0 1 0-100.978016 0Z" fill="#FFB7A4" p-id="9985"></path><path d="M484.906228 539.226115m10.521301 0l0.066172 0q10.521301 0 10.5213 10.521301l0 10.785987q0 10.521301-10.5213 10.5213l-0.066172 0q-10.521301 0-10.521301-10.5213l0-10.785987q0-10.521301 10.521301-10.521301Z" fill="#F1BFA0" p-id="9986"></path><path d="M503.434305 637.42492c29.777266-2.448353 34.740143-14.623946 33.615224-24.48353a6.61717 6.61717 0 0 0-10.918331-3.970302 41.357313 41.357313 0 0 1-28.056801 7.411231c-17.734016 0-26.468681-4.830534-30.703669-8.668493a6.61717 6.61717 0 0 0-10.058099 0.529374c-11.050674 15.285663 6.61717 32.424134 46.121676 29.18172z" fill="#F69B87" p-id="9987"></path><path d="M495.427529 855.328333l-2.977727-3.11007-91.184604-95.022563-58.892815 40.827939 0.595546 1.124919 58.297269 122.351476 94.162331-66.171701zM498.802286 852.218263l-3.705616 3.90413 94.162332 66.171702 58.694299-123.079365 0.198515-0.463202-58.892814-40.82794-0.727889 0.794061-89.728827 93.500614z" fill="#FFFFFF" p-id="9988"></path></svg>