<?xml version="1.0" standalone="no"?><!DOCTYPE svg PUBLIC "-//W3C//DTD SVG 1.1//EN" "http://www.w3.org/Graphics/SVG/1.1/DTD/svg11.dtd"><svg t="1544513474229" class="icon" style="" viewBox="0 0 1024 1024" version="1.1" xmlns="http://www.w3.org/2000/svg" p-id="16935" xmlns:xlink="http://www.w3.org/1999/xlink" width="200" height="200"><defs><style type="text/css"></style></defs><path d="M512.053691 0A511.933385 511.933385 0 0 0 201.896002 919.281811a196.579755 196.579755 0 0 1 18.452251-31.308873c-40.76815-18.052563-70.145199-55.556596-69.345824-126.567786 8.460057-147.351548 44.431954-266.458496 47.895915-312.222742a47.429612 47.429612 0 0 0-0.399688-10.258653v-2.198282-0.599532c26.64585-258.664585 118.840489-315.287015 279.781421-328.60994 158.009888-14.388759 275.318241 46.630237 315.287015 228.688004s46.630237 273.852719 70.01197 313.088733c18.851939 36.638043 9.992194 261.995316-67.747072 226.489722l-4.196722-1.798595a197.046058 197.046058 0 0 1 29.643508 45.764246A511.933385 511.933385 0 0 0 512.053691 0z" fill="#F33E7E" p-id="16936"></path><path d="M367.83303 806.436638a36.638043 36.638043 0 0 1 35.971897-30.509498h21.116836v-65.082487a224.291439 224.291439 0 0 1-129.3656-120.905543c-15.12152 2.131668-49.294822 2.131668-54.490762-39.968774s23.448348-48.628676 35.971897-49.161593v-23.781421c5.462399-20.45069 30.442883-84.400729 132.230029-110.247202a162.273224 162.273224 0 0 0 61.551912-30.9758 373.041894 373.041894 0 0 0 33.307312-29.976581s58.021337 54.957065 133.229248 66.614624c93.260474 28.311215 99.921936 112.845173 99.921936 112.845173l9.392662 8.326828v2.931043c1.398907 0 2.797814 0.532917 4.329951 0.86599l24.181108 21.449909a57.754879 57.754879 0 0 1 1.998439 26.64585c-4.46318 36.504814-30.509498 41.500911-47.296383 40.834764a224.224824 224.224824 0 0 1-132.629717 125.102264v64.549571h23.04866a36.638043 36.638043 0 0 1 36.038512 30.576112 195.78038 195.78038 0 0 1 135.494145 67.613844l4.196721 1.798594c77.739266 35.505595 86.599011-189.851678 67.747073-226.489721-23.181889-39.236014-30.043195-131.030965-70.01197-313.088733S636.423194 93.260474 478.413306 107.582618c-160.940932 13.322925-253.135571 69.945355-279.78142 328.60994V438.990372a47.429612 47.429612 0 0 1 0.399687 10.258652c-3.46396 45.764247-39.435857 164.871194-47.895914 312.222743-0.732761 70.87796 28.644288 108.381993 69.345823 126.567785a196.180068 196.180068 0 0 1 147.351548-81.602914z" fill="#282624" p-id="16937"></path><path d="M221.480702 892.103044l-2.464742-1.065833c-48.095759-21.31668-72.410096-65.015873-71.410876-129.565444 5.662243-97.257351 22.782201-180.79209 35.372365-241.8777a691.659641 691.659641 0 0 0 12.523549-70.611501 43.632579 43.632579 0 0 0 0-9.392662v-3.797034c26.64585-261.32917 119.906323-318.151444 282.845694-331.607598 174.330471-15.787666 281.64663 61.9516 318.81759 231.285974 15.521207 70.611501 25.979703 127.50039 34.439761 173.198023 13.322925 71.943794 21.250065 115.309914 35.172521 138.891491 15.387978 29.843352 14.1223 178.393963-28.311215 222.892532a35.638824 35.638824 0 0 1-43.632579 8.260213l-4.063492-1.73198h-0.799375l-0.532917-0.599532a191.250585 191.250585 0 0 0-133.229248-66.614624h-2.664585l-0.466303-2.59797a33.307312 33.307312 0 0 0-32.774395-27.778298h-26.645849v-70.345043l2.198282-0.799376a220.361176 220.361176 0 0 0 130.964351-123.503513l0.86599-2.131668h2.331512c17.786105 0.666146 39.968774-5.262555 43.899037-37.903721a56.289357 56.289357 0 0 0-1.532136-24.047879l-22.915431-19.984387-3.330731-1.065834-2.797814-0.399688v-4.32995l-9.259433-8.193599v-1.332293a134.095238 134.095238 0 0 0-97.39058-109.914129c-66.614624-10.258652-120.239396-54.757221-132.0968-65.215717A402.552173 402.552173 0 0 1 473.017522 338.40229a166.53656 166.53656 0 0 1-62.817591 31.575332c-99.921936 25.313557-124.436118 88.064533-129.765287 107.449388v26.64585h-3.197502a35.705438 35.705438 0 0 0-25.713245 10.991413c-6.661462 7.727296-8.92636 19.318241-7.06115 34.43976A42.633359 42.633359 0 0 0 259.317808 579.547229a49.028363 49.028363 0 0 0 35.838668 7.194379l2.531355-0.333073 0.99922 2.331512A221.160552 221.160552 0 0 0 426.387285 707.78038l2.198283 0.799375V779.391101h-24.780641a33.307312 33.307312 0 0 0-32.70778 27.711683l-0.466302 2.597971h-2.664585a192.116576 192.116576 0 0 0-144.953422 79.937548z m-19.651315-452.979443a51.692948 51.692948 0 0 1 0.333074 10.525111 690.860265 690.860265 0 0 1-12.656779 71.544106c-12.523549 60.819152-29.710122 144.087432-35.239136 240.745251-0.666146 60.486079 21.18345 101.587302 64.949258 122.104606a198.711423 198.711423 0 0 1 145.819412-80.53708 39.968774 39.968774 0 0 1 38.769711-30.642727h17.786105v-59.420245a227.888629 227.888629 0 0 1-128.099922-119.906323 54.091075 54.091075 0 0 1-38.303409-8.793131 48.961749 48.961749 0 0 1-17.453031-34.639604c-1.998439-17.186573 0.932605-30.509498 8.79313-39.502472a40.76815 40.76815 0 0 1 27.311996-13.322925v-21.31668c5.262555-19.984387 30.642727-86.199323 134.628155-112.578714a159.875098 159.875098 0 0 0 59.953162-30.309654 373.974499 373.974499 0 0 0 33.307312-29.710122l2.264897-2.398127 2.398126 2.264897c0.599532 0.532917 58.154567 54.357533 131.430653 65.748634a141.156388 141.156388 0 0 1 102.653136 114.643768l9.592506 8.460057v1.665366l1.73198 0.399688h0.799376l25.446786 22.515743v0.799375a61.818371 61.818371 0 0 1 2.131668 27.844913c-4.596409 37.504033-30.775956 43.832423-47.895915 43.832423h-0.532917a227.089253 227.089253 0 0 1-131.497267 124.369503V772.729638h19.984387a39.968774 39.968774 0 0 1 38.769711 30.709342 197.845433 197.845433 0 0 1 134.69477 67.946916l3.597189 1.532137a28.844132 28.844132 0 0 0 36.038512-6.661463c39.968774-41.833984 41.700755-187.187093 27.311996-215.09862-14.388759-24.380952-22.515743-68.213375-35.905283-140.88993-8.460057-45.697632-18.918553-102.586521-34.373146-173.198023-36.30497-165.537341-141.223003-241.611241-311.75644-226.090033C319.803887 124.103044 228.541852 179.859485 202.029231 436.192558v0.532917z" fill="#282624" p-id="16938"></path><path d="M791.835112 874.117096a195.78038 195.78038 0 0 0-135.494145-67.613843 36.238355 36.238355 0 0 1 0.532917 5.995316 36.638043 36.638043 0 0 1-36.571429 36.571428h-216.497528a36.638043 36.638043 0 0 1-36.571428-36.371584 36.238355 36.238355 0 0 1 0.532917-6.061931A197.312516 197.312516 0 0 0 201.896002 919.281811a511.733542 511.733542 0 0 0 619.516003 0.599532 197.046058 197.046058 0 0 0-29.576893-45.764247z" fill="#FDD089" p-id="16939"></path><path d="M597.253795 711.444184a220.294562 220.294562 0 0 1-72.876398 12.39032H499.663371a220.294562 220.294562 0 0 1-74.475149-12.923237v65.082488h172.065573zM277.103913 500.608899c-12.523549 0.532917-41.234452 6.261775-35.971897 49.161593s39.369243 42.300286 54.490762 39.968774a220.227947 220.227947 0 0 1-18.518865-88.46422zM729.883512 586.208691c16.786885 0.666146 42.833203-4.329951 47.296383-40.834764a57.754879 57.754879 0 0 0-1.998439-26.64585l-24.181108-21.449909c-1.465522-0.399688-2.931043-0.666146-4.329951-0.86599v4.996097A220.227947 220.227947 0 0 1 729.883512 586.208691z" fill="#F1BFA0" p-id="16940"></path><path d="M524.377397 723.834504a220.294562 220.294562 0 0 0 72.876398-12.39032A224.224824 224.224824 0 0 0 729.883512 586.208691a220.227947 220.227947 0 0 0 16.786885-84.467343v-8.193599l-9.392662-8.326828s-6.661462-84.533958-99.921936-112.845173c-75.20791-11.657559-133.229248-66.614624-133.229248-66.614624a373.041894 373.041894 0 0 1-33.307312 29.976581 162.273224 162.273224 0 0 1-61.551912 30.9758c-101.787145 25.779859-126.567786 89.729899-132.230029 110.247203v24.514181a220.227947 220.227947 0 0 0 18.518865 88.464221 224.291439 224.291439 0 0 0 129.3656 120.972157A220.294562 220.294562 0 0 0 499.663371 723.834504z m58.887327-245.541504a42.033828 42.033828 0 1 1 42.033828 42.033828 42.033828 42.033828 0 0 1-42.033828-42.033828z m121.571689 78.07234c0 11.391101-22.715587 20.583919-50.826958 20.583918s-50.760343-9.259433-50.760343-20.583918 22.715587-20.583919 50.826958-20.583919 50.760343 9.192818 50.760343 20.583919zM599.91838 391.227687a34.306531 34.306531 0 0 1 34.972678 7.793911 136.226906 136.226906 0 0 0-26.64585-2.464741 42.566745 42.566745 0 0 0-26.645849 7.460838s-1.065834-4.996097 18.319021-12.790008z m-15.321363 54.557377c3.730419-2.664585 7.394223-5.529014 11.324486-7.927141v-0.333073a9.392662 9.392662 0 0 1-1.332292-2.464741 10.325267 10.325267 0 0 1 0-4.929482c0-1.598751 0.399688-3.197502 0.466302-4.796253s0.399688-3.46396-0.333073-3.930263v-0.666146c1.398907-0.399688 2.065053 0.999219 2.531355 1.598751a19.984387 19.984387 0 0 1 1.265678 2.398127c0.599532 1.598751 1.065834 3.264117 1.532137 4.862867s1.398907 3.130887 1.065834 4.729638v0.932605a69.812126 69.812126 0 0 1 24.114494-7.260994 8.92636 8.92636 0 0 1-0.799376-1.532136 10.591725 10.591725 0 0 1-0.732761-2.797814 11.857403 11.857403 0 0 1 1.265678-5.129326c0.532917-1.665366 0.999219-3.330731 1.465522-4.996097a23.581577 23.581577 0 0 0 0.666146-2.464741v-2.464741c0.666146 0 1.398907 0.399688 1.598751 0.86599a7.594067 7.594067 0 0 1 0.599532 1.398907 25.580016 25.580016 0 0 1 0.666146 2.731199c0 1.798595 0.399688 3.59719 0.532917 5.395785a12.257091 12.257091 0 0 1 0 5.195941 10.192037 10.192037 0 0 1-1.998439 3.397345 55.689826 55.689826 0 0 1 9.925579 0.666147 9.126203 9.126203 0 0 1 0-0.932605 12.656779 12.656779 0 0 1 0.666146-2.997658c0.599532-1.931824 2.331512-3.064273 3.59719-4.529795l3.730419-4.396565 1.865209-2.198282c0.532917-0.599532 1.199063-1.931824 1.132449-1.665366v-0.666146s1.065834 0 1.065834 0.666146a3.996877 3.996877 0 0 1 0 0.932605 14.055686 14.055686 0 0 1 0 1.598751c0 0.999219-0.466302 1.998439-0.799375 2.931043l-2.131668 5.529014a14.655217 14.655217 0 0 1-2.464742 5.262555 16.320583 16.320583 0 0 1-1.59875 1.332293 57.488421 57.488421 0 0 1 13.789227 5.262555c0-1.865209 1.465522-3.264117 2.59797-4.396565a13.322925 13.322925 0 0 1 8.126984-3.930263v0.599532a15.98751 15.98751 0 0 0-3.930263 6.19516c-0.333073 1.065834 0 2.198283-0.532917 2.931043s-0.86599 1.065834-1.532136 1.73198a60.952381 60.952381 0 0 1 18.718709 19.251627A85.99948 85.99948 0 0 0 655.541591 439.656518a61.818371 61.818371 0 0 0-27.911527-5.529013A81.403071 81.403071 0 0 0 599.585307 441.588342c-4.46318 1.998439-8.726516 4.663024-13.322924 6.661463s-8.326828 5.595628-12.723394 8.193599c3.663804-3.46396 7.460838-6.994536 11.124643-10.65834zM501.262122 556.165496a10.591725 10.591725 0 0 1 21.250065 0v10.858183a10.591725 10.591725 0 0 1-21.250065 0z m-27.778298 59.020557a6.661462 6.661462 0 0 1 10.125423-0.532917c4.263336 3.863648 13.322925 8.393443 30.909185 8.726515a41.63414 41.63414 0 0 0 28.244601-7.460838 6.661462 6.661462 0 0 1 10.924798 3.730419c1.132449 9.858964-3.797034 22.116055-33.840229 24.647411-39.635701 3.397346-57.488421-13.855842-46.363778-29.043976z m-53.291699-218.695811c19.45147 7.793911 17.786105 12.790008 17.786105 12.790008a42.566745 42.566745 0 0 0-26.64585-7.460838 136.293521 136.293521 0 0 0-26.64585 2.464741 34.306531 34.306531 0 0 1 35.705439-7.793911z m-61.285454 46.09732c-0.666146-0.666146-1.132449-1.199063-1.532137-1.73198s0-1.865209-0.532917-2.931044a15.98751 15.98751 0 0 0-3.930262-6.19516v-0.599532a13.322925 13.322925 0 0 1 8.126984 3.930263c1.132449 1.132449 2.664585 2.531356 2.59797 4.396565a57.488421 57.488421 0 0 1 13.789227-5.262555 16.320583 16.320583 0 0 1-1.598751-1.332292 14.655217 14.655217 0 0 1-2.464741-5.262556l-2.131668-5.529013c0-0.999219-0.532917-1.931824-0.799375-2.931044a14.055686 14.055686 0 0 1 0-1.598751 3.930263 3.930263 0 0 1 0-0.932605c0-0.466302 0.732761-0.932605 1.065834-0.666146v0.666146s0.599532 1.065834 1.132448 1.665366l1.86521 2.198283 3.730419 4.396565c1.265678 1.465522 2.997658 2.664585 3.597189 4.529794a12.590164 12.590164 0 0 1 0.666147 2.997658 9.326047 9.326047 0 0 1 0 0.932605 55.823055 55.823055 0 0 1 9.925579-0.666146 10.192037 10.192037 0 0 1-1.998439-3.397346 12.190476 12.190476 0 0 1 0-5.195941c0-1.798595 0-3.59719 0.532917-5.395784a25.380172 25.380172 0 0 1 0.666146-2.7312 7.394223 7.394223 0 0 1 0.599532-1.398907c0-0.399688 0.932605-1.199063 1.598751-0.86599v0.666146c-0.333073 0 0 0.999219 0 1.798595a23.581577 23.581577 0 0 0 0.666146 2.464741c0.399688 1.665366 0.932605 3.330731 1.465522 4.996097a11.857403 11.857403 0 0 1 1.265678 5.129326 10.458496 10.458496 0 0 1-0.732761 2.797814 8.79313 8.79313 0 0 1-0.799376 1.532137A69.812126 69.812126 0 0 1 419.725823 440.522508v-0.932604c0-1.598751 0.666146-3.130887 1.065834-4.729639s0.932605-3.264117 1.532136-4.862867a19.984387 19.984387 0 0 1 1.265678-2.398127c0.466302-0.599532 1.132449-1.998439 2.531355-1.665365v0.666146c-0.732761 0.466302-0.466302 2.464741-0.333073 3.930263s0 3.197502 0.466303 4.796253a10.258652 10.258652 0 0 1 0 4.929482 9.392662 9.392662 0 0 1-1.332293 2.464741v0.333073c3.930263 2.398126 7.594067 5.262555 11.324486 7.92714 3.663804 3.663804 7.394223 7.127765 10.858184 10.858184-4.46318-2.59797-8.526672-5.529014-12.723393-8.193599s-8.726516-4.862868-13.322925-6.661462a81.336456 81.336456 0 0 0-28.311215-7.327609 61.818371 61.818371 0 0 0-27.911528 5.529014 86.066094 86.066094 0 0 0-24.380952 16.786885 61.018996 61.018996 0 0 1 18.652095-19.318241zM366.434123 582.211814c-28.044757 0-50.760343-9.259433-50.760343-20.583919s22.715587-20.583919 50.826958-20.583919 50.826958 9.259433 50.826958 20.583919S394.345651 582.211814 366.434123 582.211814z m28.710903-56.622431a42.033828 42.033828 0 1 1 42.033828-42.033827 42.033828 42.033828 0 0 1-42.167057 42.033827z" fill="#F9CFB3" p-id="16941"></path><path d="M524.377397 727.165235H499.663371a223.492063 223.492063 0 0 1-75.607598-13.322924 227.822014 227.822014 0 0 1-131.497268-122.570908 222.759303 222.759303 0 0 1-18.785324-89.796514v-25.380171c5.262555-19.984387 30.642727-86.199323 134.628155-112.578715a159.875098 159.875098 0 0 0 59.953162-30.309654 373.974499 373.974499 0 0 0 33.307312-29.710122l2.264897-2.398127 2.398127 2.264898c0.599532 0.532917 58.154567 54.357533 131.430653 65.748634a141.156388 141.156388 0 0 1 102.71975 114.510538l9.592506 8.460057v9.459277A222.892532 222.892532 0 0 1 732.814555 587.274525a227.022639 227.022639 0 0 1-134.628155 127.300547 223.625293 223.625293 0 0 1-73.809003 12.590163zM280.434644 477.493625v24.047879a216.164455 216.164455 0 0 0 18.185792 87.065314A221.160552 221.160552 0 0 0 426.387285 707.78038a216.830601 216.830601 0 0 0 73.276086 12.723393h24.980484a216.897216 216.897216 0 0 0 71.810565-12.190476 220.361176 220.361176 0 0 0 130.364819-123.570128 216.297684 216.297684 0 0 0 16.587042-83.201665v-6.661462l-9.259433-8.193599v-1.332293a134.095238 134.095238 0 0 0-97.390581-109.914129c-66.614624-10.258652-120.239396-54.757221-132.096799-65.215717A402.552173 402.552173 0 0 1 473.017522 338.40229a166.53656 166.53656 0 0 1-62.817591 31.575332c-99.855321 25.313557-124.502732 88.131148-129.765287 107.516003zM510.58817 648.160291c-20.384075 0-35.905282-5.795472-41.567526-15.85428a16.8535 16.8535 0 0 1 1.798595-18.985168 9.326047 9.326047 0 0 1 6.661463-3.730419 10.924798 10.924798 0 0 1 8.326828 2.7312c3.730419 3.397346 11.724174 7.594067 28.710902 7.860525a39.968774 39.968774 0 0 0 26.112933-6.661462 10.325267 10.325267 0 0 1 10.458496-1.598751 9.259433 9.259433 0 0 1 5.928702 7.594067 20.45069 20.45069 0 0 1-4.063492 15.787666c-5.728858 6.661462-16.587041 11.124642-32.441322 12.456935q-5.262555 0.399688-9.925579 0.399687z m-31.97502-31.975019h-0.399688a2.797814 2.797814 0 0 0-1.998438 1.065834 10.525111 10.525111 0 0 0-1.332293 11.790788c3.863648 6.661462 17.985948 14.322144 44.831642 12.057247 13.989071-1.132449 23.315118-4.529794 27.844913-10.058808a13.989071 13.989071 0 0 0 2.931043-10.858184 2.664585 2.664585 0 0 0-1.798594-2.131668 3.663804 3.663804 0 0 0-3.730419 0.532917 45.0981 45.0981 0 0 1-30.442884 8.260214c-19.051782-0.333073-28.511059-5.395785-33.307312-9.592506a4.196721 4.196721 0 0 0-2.59797-1.065834zM366.434123 585.542545c-30.842571 0-54.091075-10.258652-54.091074-23.91465s23.248504-23.91465 54.157689-23.91465 54.157689 10.258652 54.157689 23.91465S397.143465 585.542545 366.434123 585.542545z m0-41.234452c-27.978142 0-47.429612 9.126203-47.429612 17.253187s19.318241 17.319802 47.429612 17.319802 47.496227-9.126203 47.496227-17.253187-19.651314-17.319802-47.496227-17.319802z m145.619568 36.638043a13.989071 13.989071 0 0 1-13.922456-13.922457V556.23211a13.922456 13.922456 0 0 1 27.911527 0v10.858184a13.989071 13.989071 0 0 1-14.1223 13.855842z m0-32.041634a7.260994 7.260994 0 0 0-7.260994 7.260994v10.858183a7.260994 7.260994 0 0 0 14.588603 0V556.23211a7.260994 7.260994 0 0 0-7.460838-7.327608z m142.088993 31.375488c-30.842571 0-54.091075-10.258652-54.091074-23.91465s23.248504-23.91465 54.157689-23.91465 54.157689 10.258652 54.157689 23.91465-23.514962 23.91465-54.357533 23.91465z m0-41.234453c-27.911527 0-47.895915 9.126203-47.895914 17.319803s19.518085 17.253188 47.496227 17.253187 47.496227-9.126203 47.496227-17.253187-19.251626-17.319802-47.229769-17.319803z m-259.130887-10.125423a45.364559 45.364559 0 0 1-27.711684-81.269841l-1.199063 0.532917a82.135831 82.135831 0 0 0-23.448347 16.120739l-18.652095 18.119178 13.322925-22.249284a64.216498 64.216498 0 0 1 16.786885-18.252407 6.261775 6.261775 0 0 1-0.399688-2.597971 11.590945 11.590945 0 0 0-3.130887-5.262555l-1.532137-1.598751 1.798595-4.329951 2.7312-0.333073a16.187354 16.187354 0 0 1 10.125423 4.929482 17.786105 17.786105 0 0 1 1.998438 2.264898l4.196722-1.731981-0.99922-8.126984-0.666146-1.73198c-0.399688-1.265678-0.666146-2.331512-0.932605-3.397346a19.118397 19.118397 0 0 1 0-1.931824 8.393443 8.393443 0 0 1 0-1.73198 2.797814 2.797814 0 0 1 0.599532-1.798595 4.663024 4.663024 0 0 1 1.465522-1.199063l1.865209-0.999219 1.199064 0.666146h0.666146l0.666146 0.732761 1.665366 1.332292v1.332293l1.931824 2.198282 3.797033 4.46318 0.99922 1.065834a11.257871 11.257871 0 0 1 3.197502 4.663024l0.399687 1.265677h1.665366a11.191257 11.191257 0 0 1 0-4.263335v-1.332293c0-1.931824 0-3.797034 0.532917-5.662243a27.978142 27.978142 0 0 1 0.799375-3.330731 10.924798 10.924798 0 0 1 0.86599-1.998439 4.929482 4.929482 0 0 1 2.664585-2.398126 4.196721 4.196721 0 0 1 3.330732 0l2.398126 1.132448-0.799375 3.463961a18.052563 18.052563 0 0 0 0.599531 2.264897c0.466302 1.73198 0.932605 3.330731 1.465522 4.996097 0 0.466302 0 0.86599 0.466302 1.265678a9.925579 9.925579 0 0 1 0.932605 5.395784v1.132449a72.676555 72.676555 0 0 1 16.520427 4.929482 10.724954 10.724954 0 0 0 0.399688-1.132449c0.532917-1.73198 1.065834-3.46396 1.665365-5.129326a23.981265 23.981265 0 0 1 1.532137-2.997658c2.331512-3.397346 4.663024-3.530575 6.261774-3.064273l3.130888 0.865991-1.265678 4.729638v1.598751c0 1.931824 0 3.46396 0.466302 4.996097a11.058028 11.058028 0 0 0 0 1.199063 8.992974 8.992974 0 0 1 0 5.395784v0.532917c1.865209 1.265678 3.730419 2.59797 5.529014 3.930263l3.197502 2.331512 4.063492 3.930263c2.531356 2.398126 4.996097 4.862868 7.327608 7.394223l15.054905 16.387198-19.251626-11.257872c-2.931043-1.73198-5.728858-3.59719-8.526672-5.395784l-4.32995-2.864429-0.86599-0.399688a45.364559 45.364559 0 0 1-36.571429 72.210252z m0-84.067655a38.703097 38.703097 0 1 0 38.703097 38.703097 38.769711 38.769711 0 0 0-38.703097-38.703097z m-34.506375-5.529014a1.065834 1.065834 0 0 0 0-0.466302z m62.351288-1.199063a3.46396 3.46396 0 0 0 0 0.86599v0.466302a2.398126 2.398126 0 0 0 0-1.332292z m-63.084049 0.599532z m11.457715-7.127765v1.332292h0.732761z m6.261775-2.198283a3.797034 3.797034 0 0 0 0.732761 1.332293 3.863648 3.863648 0 0 0-0.399688-1.332293z m50.493885-0.86599l-0.932605 0.932605a2.59797 2.59797 0 0 0 1.199063-0.932605z m-34.706219-1.332292a2.931043 2.931043 0 0 0 0 1.132448v0.466303-0.333073a2.864429 2.864429 0 0 0 0.333073-1.265678z m1.865209-11.058028z m229.820453 107.516003a45.364559 45.364559 0 0 1-36.105126-72.809784l-1.132449 0.599532-3.996877 2.664585c-2.797814 1.865209-5.595628 3.730419-8.526672 5.462399l-19.185012 11.324486 15.054905-16.453812c2.331512-2.531356 4.796253-4.929482 7.327609-7.394223l3.663804-3.59719 0.399688-0.333073 3.130887-2.264897c1.798595-1.332292 3.663804-2.664585 5.595629-3.996878v-0.599531a8.992974 8.992974 0 0 1 0-5.32917 11.191257 11.191257 0 0 0 0-1.132449c0-1.665366 0.399688-3.197502 0.466302-4.663024s0-1.132449 0-1.598751l-0.999219-4.529794 2.931043-1.465522a5.195941 5.195941 0 0 1 5.928702 2.664585 22.848816 22.848816 0 0 1 1.73198 3.264117c0.732761 1.931824 1.199063 3.59719 1.73198 5.262555a11.657559 11.657559 0 0 0 0.399688 1.199063v0.333073a72.60994 72.60994 0 0 1 16.520427-4.929482v-1.132448a9.925579 9.925579 0 0 1 0.932604-5.395785 11.857403 11.857403 0 0 0 0.399688-1.199063c0.532917-1.665366 0.999219-3.264117 1.398907-4.862868a21.449909 21.449909 0 0 0 0.599532-2.264897l-0.86599-3.797034 2.398126-1.132448a4.263336 4.263336 0 0 1 3.264117 0 5.129326 5.129326 0 0 1 2.797814 2.59797 9.459277 9.459277 0 0 1 0.732761 1.798595 28.977361 28.977361 0 0 1 0.732761 3.064273c0 2.131668 0.466302 3.996877 0.599531 5.795472v1.398907a11.257871 11.257871 0 0 1 0 4.263336h1.665366l0.399688-1.332292a11.324486 11.324486 0 0 1 3.197502-4.596409l1.398907-0.865991 3.730419-4.396565 1.798594-2.065053v-0.666146l1.931825-2.331512 1.199063-0.932605 2.531356 0.999219a4.263336 4.263336 0 0 1 1.398907 1.132449 3.930263 3.930263 0 0 1 0.666146 1.931824A7.327609 7.327609 0 0 1 652.877007 413.010669a16.587041 16.587041 0 0 1 0 1.931824c0 1.065834-0.532917 2.131668-0.799376 3.197502l-0.599532 1.598751-0.932604 8.593286 3.996877 1.665366a15.387978 15.387978 0 0 1 1.798595-2.065053 16.453812 16.453812 0 0 1 10.325267-5.129327h2.464741l1.798595 4.329951-1.265678 2.198283a12.723393 12.723393 0 0 0-3.064273 4.862867 7.194379 7.194379 0 0 1-0.466302 2.931044 64.149883 64.149883 0 0 1 16.786885 18.252407l13.322925 22.182669-18.652095-18.119177a82.335675 82.335675 0 0 0-23.448348-16.120739l-1.265677-0.932605a45.364559 45.364559 0 0 1-27.711684 81.269841z m0-84.067655a38.703097 38.703097 0 1 0 38.703097 38.703096 38.769711 38.769711 0 0 0-38.370024-38.636482zM659.538469 433.661202v0z m-62.08483-0.666146a2.664585 2.664585 0 0 0 0 0.932605v0.333073-0.466303a3.663804 3.663804 0 0 0 0-0.799375z m62.684362 0.732761z m-33.906844-2.664585z m11.391101-2.931044h0.599531z m10.591725-0.666146h0.532917v-0.999219z m-5.862087-3.264116a3.730419 3.730419 0 0 0-0.86599 1.265677v0.399688a3.797034 3.797034 0 0 0 1.065834-1.73198z m-15.787666-2.198283a2.797814 2.797814 0 0 0 0 1.132449v0.399687-0.466302a3.064273 3.064273 0 0 0 0.133229-1.132449z m-1.73198-10.791569zM439.71021 414.942493l-3.730419-3.064273a41.367681 41.367681 0 0 0-24.181109-6.661462 135.027843 135.027843 0 0 0-25.64663 2.398126l-11.391101 2.664585 8.260214-8.260213a37.304189 37.304189 0 0 1 38.569867-8.526672c19.45147 7.793911 20.650533 13.922456 19.984387 16.920114z m-4.929482-5.728858z m-25.580016-11.52433a27.778298 27.778298 0 0 0-8.193599 1.265678c3.130887 0 6.661462-0.399688 10.724955-0.466302h4.32995a26.046318 26.046318 0 0 0-6.861306-0.799376z m171.332813 11.990633l-1.532137-4.59641c-0.999219-2.997658 0-9.126203 19.984388-16.920114a37.370804 37.370804 0 0 1 38.569867 8.526672l8.260213 8.260213-11.3911-2.664585a135.094457 135.094457 0 0 0-25.979704-2.59797 39.302628 39.302628 0 0 0-24.181108 6.661462z m27.178766-16.653656h0.865991c3.996877 0 7.594067 0 10.724954 0.466302A26.64585 26.64585 0 0 0 604.248331 393.026282z" fill="#F9CFB3" p-id="16942"></path><path d="M511.920462 577.615405a10.65834 10.65834 0 0 0 10.591725-10.591726v-10.858183a10.591725 10.591725 0 0 0-21.250065 0v10.858183a10.65834 10.65834 0 0 0 10.65834 10.591726z" fill="#F1BFA0" p-id="16943"></path><path d="M519.647759 644.429872c29.976581-2.464741 34.972678-14.721832 33.840229-24.64741a6.661462 6.661462 0 0 0-10.924799-3.730419 41.63414 41.63414 0 0 1-28.2446 7.460838c-17.852719 0-26.64585-4.862868-30.909186-8.726516a6.661462 6.661462 0 0 0-10.125423 0.532917c-10.924798 15.12152 6.927921 32.374707 46.363779 29.11059z" fill="#F69B87" p-id="16944"></path><path d="M620.302455 775.993755h-216.497528a36.638043 36.638043 0 0 0-35.971897 30.509498 36.238355 36.238355 0 0 0-0.532917 6.06193 36.638043 36.638043 0 0 0 36.571429 36.571429h216.497528A36.638043 36.638043 0 0 0 656.873884 812.698413a36.238355 36.238355 0 0 0-0.532917-5.995316 36.638043 36.638043 0 0 0-36.038512-30.709342z" fill="#FFFFFF" p-id="16945"></path><path d="M395.011797 441.521728a42.033828 42.033828 0 1 0 42.033828 42.033828 42.033828 42.033828 0 0 0-42.033828-42.033828z m16.786885 75.807442a10.391881 10.391881 0 0 1-10.391881-10.391881 10.258652 10.258652 0 0 1 1.265678-4.862868 19.984387 19.984387 0 0 1-24.980484-28.177986 12.923237 12.923237 0 1 1 17.919334-11.924018 12.656779 12.656779 0 0 1 0 1.731981 19.984387 19.984387 0 0 1 14.588602 33.307312h1.798595a10.391881 10.391881 0 0 1 0 20.783762z" fill="#5B361E" p-id="16946"></path><path d="M410.000087 496.678636a19.984387 19.984387 0 0 0-14.588602-33.307312 12.856622 12.856622 0 0 1-17.71949 10.192038 19.984387 19.984387 0 0 0-2.664585 9.725735 19.984387 19.984387 0 0 0 27.645069 18.452251 10.325267 10.325267 0 0 1 7.327608-5.062712z" fill="#341B0A" p-id="16947"></path><path d="M395.411485 463.571168a12.656779 12.656779 0 0 0 0-1.73198 13.322925 13.322925 0 1 0 0 1.73198zM411.798682 496.478793h-1.798595a10.258652 10.258652 0 1 0 1.798595 0z" fill="#FFFFFF" p-id="16948"></path><path d="M315.473936 561.627895a50.826958 20.583919 0 1 0 101.653916 0 50.826958 20.583919 0 1 0-101.653916 0Z" fill="#FFB7A4" p-id="16949"></path><path d="M392.7469 439.656518a81.336456 81.336456 0 0 1 27.911527 7.260994c4.46318 1.998439 8.726516 4.663024 13.322925 6.661463s8.326828 5.595628 12.723393 8.193599c-3.46396-3.730419-7.194379-7.194379-10.858183-10.858184-3.730419-2.664585-7.394223-5.529014-11.324487-7.92714v-0.333074a9.392662 9.392662 0 0 0 1.332293-2.464741 10.258652 10.258652 0 0 0 0-4.929482c0-1.598751-0.399688-3.197502-0.466302-4.796253s-0.399688-3.46396 0.333073-3.930263v-0.666146c-1.398907-0.399688-2.065053 0.999219-2.531356 1.665366a19.984387 19.984387 0 0 0-1.265678 2.398126c-0.599532 1.598751-1.065834 3.264117-1.532136 4.862868s-1.398907 3.130887-1.065834 4.729638v0.932605A69.812126 69.812126 0 0 0 395.544714 432.995056a8.79313 8.79313 0 0 0 0.799376-1.532136 10.458496 10.458496 0 0 0 0.73276-2.797815 11.857403 11.857403 0 0 0-1.265677-5.129326c-0.532917-1.665366-0.999219-3.330731-1.465522-4.996096a23.581577 23.581577 0 0 1-0.666146-2.464742v-2.464741c-0.666146 0-1.398907 0.399688-1.598751 0.86599a7.394223 7.394223 0 0 0-0.599532 1.398908 25.380172 25.380172 0 0 0-0.666146 2.731199c0 1.798595-0.399688 3.59719-0.532917 5.395785a12.190476 12.190476 0 0 0 0 5.19594 10.192037 10.192037 0 0 0 1.998438 3.397346 55.823055 55.823055 0 0 0-9.925579 0.666146 9.326047 9.326047 0 0 0 0-0.932604 12.590164 12.590164 0 0 0-0.666146-2.997658c-0.599532-1.931824-2.331512-3.064273-3.597189-4.529795l-3.730419-4.396565-1.86521-2.198283c-0.599532-0.599532-1.199063-1.931824-1.132448-1.665365v-0.666146s-1.065834 0-1.065834 0.666146a3.930263 3.930263 0 0 0 0 0.932605 14.055686 14.055686 0 0 0 0 1.598751c0 0.999219 0.466302 1.998439 0.799375 2.931043l2.131668 5.529014a14.655217 14.655217 0 0 0 2.464741 5.262555 16.320583 16.320583 0 0 0 1.598751 1.332293 57.488421 57.488421 0 0 0-13.789227 5.262555c0-1.865209-1.465522-3.264117-2.59797-4.396565a13.322925 13.322925 0 0 0-7.793911-3.797034v0.599532a15.98751 15.98751 0 0 1 3.930262 6.19516c0.333073 1.065834 0 2.198283 0.532917 2.931043s0.86599 1.065834 1.532137 1.73198a61.018996 61.018996 0 0 0-18.71871 19.251627 86.066094 86.066094 0 0 1 24.380953-16.786885 61.818371 61.818371 0 0 1 27.978142-5.4624z" fill="" p-id="16950"></path><path d="M438.178073 409.28025s1.665366-4.996097-17.786104-12.790008a34.306531 34.306531 0 0 0-34.972678 7.793911 136.293521 136.293521 0 0 1 26.64585-2.464741 42.566745 42.566745 0 0 1 26.112932 7.460838z" fill="#75544F" p-id="16951"></path><path d="M667.33238 478.293a42.033828 42.033828 0 1 0-42.033828 42.033828 42.033828 42.033828 0 0 0 42.033828-42.033828z m-58.820713 33.707a10.391881 10.391881 0 0 1 0-20.783763h1.798595a19.984387 19.984387 0 0 1 14.588602-33.307312 12.656779 12.656779 0 0 1 0-1.73198 12.923237 12.923237 0 1 1 17.919334 11.924018 19.984387 19.984387 0 0 1 2.664585 9.725735 19.984387 19.984387 0 0 1-27.645069 18.452251 10.258652 10.258652 0 0 1 1.265678 4.862867 10.391881 10.391881 0 0 1-10.591725 10.858184z" fill="#5B361E" p-id="16952"></path><path d="M617.63787 496.745251a19.984387 19.984387 0 0 0 24.980484-28.177986 12.856622 12.856622 0 0 1-17.71949-10.258652 19.984387 19.984387 0 0 0-14.588602 33.307312 10.325267 10.325267 0 0 1 7.327608 5.129326z" fill="#341B0A" p-id="16953"></path><path d="M637.622258 469.566485a12.923237 12.923237 0 1 0-12.923237-12.923238 12.656779 12.656779 0 0 0 0 1.731981 12.856622 12.856622 0 0 0 12.923237 11.191257zM610.310262 491.416081h-1.798595a10.391881 10.391881 0 1 0 10.391881 10.192038 10.525111 10.525111 0 0 0-8.593286-10.192038z" fill="#FFFFFF" p-id="16954"></path><path d="M603.182497 556.36534a50.826958 20.583919 0 1 0 101.653916 0 50.826958 20.583919 0 1 0-101.653916 0Z" fill="#FFB7A4" p-id="16955"></path><path d="M599.585307 441.588342a81.403071 81.403071 0 0 1 27.911528-7.260994 61.818371 61.818371 0 0 1 28.044756 5.32917 85.99948 85.99948 0 0 1 24.380953 16.786886 60.952381 60.952381 0 0 0-18.718709-19.251627c0.666146-0.666146 1.132449-1.199063 1.532136-1.73198s0-1.865209 0.532917-2.931043a15.98751 15.98751 0 0 1 3.930263-6.19516v-0.599532a13.322925 13.322925 0 0 0-8.126984 3.930263c-1.132449 1.132449-2.664585 2.531356-2.597971 4.396565a57.488421 57.488421 0 0 0-13.789227-5.262555 16.320583 16.320583 0 0 0 1.598751-1.332293 14.655217 14.655217 0 0 0 2.464741-5.262555l2.131668-5.529014c0-0.999219 0.532917-1.931824 0.799376-2.931043a14.055686 14.055686 0 0 0 0-1.598751 3.996877 3.996877 0 0 0 0-0.932605c0-0.466302-0.732761-0.932605-1.065834-0.666146v0.666146s-0.599532 1.065834-1.132449 1.665366l-1.86521 2.198282-3.730418 4.396565c-1.265678 1.465522-2.997658 2.664585-3.59719 4.529795a12.656779 12.656779 0 0 0-0.666146 2.997658 9.126203 9.126203 0 0 0 0 0.932605 55.689826 55.689826 0 0 0-9.925579-0.666147 10.192037 10.192037 0 0 0 1.998438-3.397346 12.257091 12.257091 0 0 0 0-5.19594c0-1.798595 0-3.59719-0.532917-5.395785a25.580016 25.580016 0 0 0-0.666146-2.731199 7.594067 7.594067 0 0 0-0.599531-1.398907c0-0.399688-0.932605-1.199063-1.598751-0.865991v0.666147c0.333073 0 0 0.999219 0 1.798595a23.581577 23.581577 0 0 1-0.666147 2.464741c-0.399688 1.665366-0.932605 3.330731-1.465521 4.996096a11.857403 11.857403 0 0 0-1.265678 5.129326 10.591725 10.591725 0 0 0 0.732761 2.797815 8.92636 8.92636 0 0 0 0.799375 1.532136 69.812126 69.812126 0 0 0-24.114494 7.260994v-0.932605c0-1.598751-0.666146-3.130887-1.065834-4.729638s-0.932605-3.264117-1.532136-4.862868a19.984387 19.984387 0 0 0-1.265678-2.398126c-0.466302-0.599532-1.132449-1.998439-2.531356-1.598751v0.666146c0.732761 0.466302 0.466302 2.464741 0.333073 3.930263s0 3.197502-0.466302 4.796253a10.325267 10.325267 0 0 0 0 4.929482 9.392662 9.392662 0 0 0 1.332293 2.464741v0.333073c-3.930263 2.398126-7.594067 5.262555-11.324487 7.927141-3.663804 3.663804-7.394223 7.127765-10.858183 10.858183 4.46318-2.59797 8.526672-5.529014 12.723393-8.193598s9.592506-4.529794 13.922456-6.528234z" fill="" p-id="16956"></path><path d="M608.511667 396.556857a136.226906 136.226906 0 0 1 26.64585 2.464741 34.306531 34.306531 0 0 0-34.972678-7.793911c-19.45147 7.793911-17.786105 12.790008-17.786105 12.790008a42.566745 42.566745 0 0 1 26.112933-7.460838z" fill="#75544F" p-id="16957"></path></svg>