<svg xmlns="http://www.w3.org/2000/svg" width="877.8" height="877.9" viewBox="0 0 877.8 877.9"><g transform="translate(-74.1 -73.3)"><path d="M866.5,515.7a87.5,87.5,0,0,0,84.1,87.4A443.4,443.4,0,0,1,882,764.2,87.433,87.433,0,0,0,757.4,886.3a445.432,445.432,0,0,1-160.8,64.9,87.468,87.468,0,0,0-174.1-1.3,445.3,445.3,0,0,1-157.3-65.8,87.47,87.47,0,0,0-123-122.6A445.827,445.827,0,0,1,75.4,602.8a87.468,87.468,0,0,0-1.3-174.1A444.061,444.061,0,0,1,138.9,268,87.49,87.49,0,0,0,261.1,143.2a443.733,443.733,0,0,1,161-68.5,87.443,87.443,0,0,0,174.8-1.4A444.407,444.407,0,0,1,761.7,141,87.436,87.436,0,0,0,885.1,264.9a443.5,443.5,0,0,1,66.8,163.4,87.345,87.345,0,0,0-85.4,87.4ZM510.7,317.1c-104.5,0-189.1,84.7-189.1,189.1,0,104.5,84.7,189.1,189.1,189.1,104.5,0,189.1-84.7,189.1-189.1S615.2,317.1,510.7,317.1Z" fill="#40c3d8"/></g></svg>