<?xml version="1.0" encoding="utf-8"?>
<!-- Svg Vector Icons : http://www.sfont.cn -->
<!DOCTYPE svg PUBLIC "-//W3C//DTD SVG 1.1//EN" "http://www.w3.org/Graphics/SVG/1.1/DTD/svg11.dtd">
<svg version="1.1" xmlns="http://www.w3.org/2000/svg" xmlns:xlink="http://www.w3.org/1999/xlink" x="0px" y="0px" viewBox="0 0 1000 1000" enable-background="new 0 0 1000 1000" xml:space="preserve">
<metadata> Svg Vector Icons : http://www.sfont.cn </metadata>
<g><path d="M273.3,236.7c0,125.2,101.5,226.7,226.7,226.7c125.2,0,226.7-101.5,226.7-226.7S625.2,10,500,10C374.8,10,273.3,111.5,273.3,236.7L273.3,236.7z"/><path d="M749.1,534.9c-10-8.6-24.6-9.6-35.3-1.9c-60.1,43.5-134,69.1-213.8,69.1S346.3,576.5,286.2,533c-10.6-7.7-25.3-6.7-35.3,1.9L118,649.1c-6.4,5.5-10.1,13.5-10.1,22v290c0,16,13,28.9,28.9,28.9H500h363.2c16,0,28.9-13,28.9-28.9v-290c0-8.4-3.7-16.5-10.1-22L749.1,534.9z"/></g>
</svg>