<?xml version="1.0" standalone="no"?><!DOCTYPE svg PUBLIC "-//W3C//DTD SVG 1.1//EN" "http://www.w3.org/Graphics/SVG/1.1/DTD/svg11.dtd"><svg t="1546045328385" class="icon" style="" viewBox="0 0 1024 1024" version="1.1" xmlns="http://www.w3.org/2000/svg" p-id="42519" xmlns:xlink="http://www.w3.org/1999/xlink" width="200" height="200"><defs><style type="text/css"></style></defs><path d="M31.19104 373.62688l467.33824 306.00704c7.26528 4.75648 18.57536 4.75648 25.84064 0l467.33824-306.00704c27.4944-18.00704 1.8688-62.35648-25.84064-44.2112l-467.33824 306.00704h25.84064L57.03168 329.41568C29.31712 311.2704 3.69152 355.61984 31.19104 373.62688z" p-id="42520" fill="#ffffff"></path><path d="M953.1904 351.51872v539.33056c0 49.01376-41.46176 47.08352-76.81536 47.08352H111.744c-48.80896 0-42.03008-52.3008-42.03008-85.22752v-187.68384-313.50272c0-33.01888-51.2-33.01888-51.2 0v539.33056c0 62.592 46.5408 98.28352 105.5488 98.28352h776.19712c58.6496 0 104.13568-36.7616 104.13568-98.28352v-166.46144-372.86912c-0.00512-33.01376-51.20512-33.01376-51.20512 0z" p-id="42521" fill="#ffffff"></path><path d="M55.5776 362.71616l456.28416-281.10848h-25.84064l479.85152 279.65952c28.58496 16.66048 54.34368-27.5968 25.84064-44.2112L511.86176 37.39648c-7.77216-4.5312-18.08896-4.77696-25.84064 0L29.73696 318.50496c-28.04736 17.28-2.35008 61.58336 25.84064 44.2112z" p-id="42522" fill="#ffffff"></path><path d="M397.70112 585.73312l-330.46016 361.17504" p-id="42523" fill="#ffffff"></path><path d="M379.60192 567.6544c-110.1568 120.3712-220.30848 240.75776-330.46016 361.15456-22.24128 24.29952 13.87008 60.61056 36.1984 36.1984l330.46016-361.17504c22.24128-24.28928-13.87008-60.59008-36.1984-36.17792z" p-id="42524" fill="#ffffff"></path><path d="M608.4352 600.25856l345.4208 346.6496" p-id="42525" fill="#ffffff"></path><path d="M590.336 618.35776l345.4208 346.6496c23.32672 23.40864 59.52512-12.79488 36.1984-36.1984l-345.4208-346.6496c-23.32672-23.40864-59.52512 12.79488-36.1984 36.1984z" p-id="42526" fill="#ffffff"></path></svg>