<?xml version="1.0" standalone="no"?><!DOCTYPE svg PUBLIC "-//W3C//DTD SVG 1.1//EN" "http://www.w3.org/Graphics/SVG/1.1/DTD/svg11.dtd"><svg t="1562131532812" class="icon" viewBox="0 0 1024 1024" version="1.1" xmlns="http://www.w3.org/2000/svg" p-id="2973" width="96" height="96" xmlns:xlink="http://www.w3.org/1999/xlink"><defs><style type="text/css"></style></defs><path d="M403.552 316.256l-54.208 46.432v100.864l54.208 46.432a3.2 3.2 0 0 0 5.28-2.432V318.688a3.2 3.2 0 0 0-5.28-2.432z" fill="#8CDB7B" p-id="2974"></path><path d="M859.072 35.616h-704c-70.4 0-128 57.6-128 128v704c0 70.4 57.6 128 128 128h704c70.4 0 128-57.6 128-128v-704c0-70.4-57.6-128-128-128z m-190.4 344.256H561.28a127.04 127.04 0 0 0-5.408-16h112.8c3.392 0 6.176 3.36 6.176 7.488v0.992c-0.032 4.16-2.784 7.52-6.176 7.52z m6.144 55.008v0.992c0 4.128-2.784 7.488-6.176 7.488h-106.144c1.184-5.216 2.112-10.56 2.656-16h103.488c3.424 0.032 6.176 3.392 6.176 7.52z m-6.048 56c3.328 0 6.048 3.36 6.048 7.488v0.992c0 4.128-2.72 7.488-6.048 7.488H529.6c5.888-4.512 9.024-9.824 13.152-16h126.016z m-1.44 143.008h-272.992a7.488 7.488 0 0 1-7.488-7.488v-0.992c0-4.128 3.36-7.488 7.488-7.488h272.992c4.128 0 7.488 3.36 7.488 7.488v0.992a7.52 7.52 0 0 1-7.488 7.488z m7.488 55.008v0.992a7.488 7.488 0 0 1-7.488 7.488h-272.992a7.488 7.488 0 0 1-7.488-7.488v-0.992c0-4.128 3.36-7.488 7.488-7.488h272.992a7.488 7.488 0 0 1 7.488 7.488z m-7.488-118.528h-272.992a7.488 7.488 0 0 1-7.488-7.488v-0.992c0-4.128 3.36-7.488 7.488-7.488h272.992c4.128 0 7.488 3.36 7.488 7.488v0.992a7.488 7.488 0 0 1-7.488 7.488zM492 320c-3.296-3.808-3.776-9.28-0.704-12.448 3.072-3.168 8.96-2.4 12.768 1.952a151.808 151.808 0 0 1 0 199.424c-3.776 4.352-9.664 5.088-12.768 1.952-3.072-3.168-2.624-8.64 0.704-12.448a135.84 135.84 0 0 0 0-178.432z m-46.048 16.032c-3.232-3.84-3.712-9.312-0.64-12.48 3.072-3.168 9.056-2.336 12.832 2.144a129.12 129.12 0 0 1 0 167.04c-3.808 4.48-9.76 5.312-12.832 2.144-3.072-3.168-2.592-8.64 0.64-12.48a113.216 113.216 0 0 0 0-146.368z m-159.456 138.336c-8.896 0-16.16-6.464-16.16-14.4v-92.192c0-7.936 7.264-14.4 16.16-14.4h49.088l80.192-68.672a5.504 5.504 0 0 1 9.056 4.16v248.448a5.472 5.472 0 0 1-9.056 4.16l-78.4-67.104h-50.88z m434.656 232.608c0 22.56-18.848 40.896-42.048 40.896h-298.56c-23.2 0-42.048-18.336-42.048-40.896v-164.32h16.832v164.32a24.96 24.96 0 0 0 25.248 24.544h298.56a24.96 24.96 0 0 0 25.248-24.544V345.952a24.96 24.96 0 0 0-25.248-24.544H560.32v-16.352h118.784c23.2 0 42.048 18.368 42.048 40.896v361.024z" fill="#8CDB7B" p-id="2975"></path><path d="M288.288 369.376h45.056v88.992H288.288z" fill="#8CDB7B" p-id="2976"></path></svg>