<?xml version="1.0" standalone="no"?><!DOCTYPE svg PUBLIC "-//W3C//DTD SVG 1.1//EN" "http://www.w3.org/Graphics/SVG/1.1/DTD/svg11.dtd"><svg t="1546046368734" class="icon" style="" viewBox="0 0 1024 1024" version="1.1" xmlns="http://www.w3.org/2000/svg" p-id="50655" xmlns:xlink="http://www.w3.org/1999/xlink" width="200" height="200"><defs><style type="text/css"></style></defs><path d="M752.941176 96.376471v60.235294h144.564706c17.588706 0 36.141176 21.805176 36.141177 53.127529V851.124706c0 31.322353-18.552471 53.187765-36.141177 53.187765H126.494118c-17.588706 0-36.141176-21.865412-36.141177-53.187765V209.739294c0-31.322353 18.552471-53.127529 36.141177-53.127529H271.058824v-60.235294H126.494118C73.246118 96.376471 30.117647 147.154824 30.117647 209.739294V851.124706c0 62.644706 43.128471 113.423059 96.376471 113.423059h771.011764c53.248 0 96.376471-50.778353 96.376471-113.423059V209.739294c0-62.644706-43.128471-113.362824-96.376471-113.362823H752.941176z m0 0v60.235294h144.564706c17.588706 0 36.141176 21.805176 36.141177 53.127529V851.124706c0 31.322353-18.552471 53.187765-36.141177 53.187765H126.494118c-17.588706 0-36.141176-21.865412-36.141177-53.187765V209.739294c0-31.322353 18.552471-53.127529 36.141177-53.127529H271.058824v-60.235294H126.494118C73.246118 96.376471 30.117647 147.154824 30.117647 209.739294V851.124706c0 62.644706 43.128471 113.423059 96.376471 113.423059h771.011764c53.248 0 96.376471-50.778353 96.376471-113.423059V209.739294c0-62.644706-43.128471-113.362824-96.376471-113.362823H752.941176z" fill="#ffffff" p-id="50656"></path><path d="M331.294118 60.235294a60.235294 60.235294 0 1 0 0 120.470588h361.411764a60.235294 60.235294 0 0 0 0-120.470588H331.294118z m0-60.235294h361.411764a120.470588 120.470588 0 1 1 0 240.941176H331.294118a120.470588 120.470588 0 1 1 0-240.941176zM271.058824 421.647059a30.117647 30.117647 0 0 1 0-60.235294h481.882352a30.117647 30.117647 0 1 1 0 60.235294H271.058824zM271.058824 602.352941a30.117647 30.117647 0 0 1 0-60.235294h481.882352a30.117647 30.117647 0 1 1 0 60.235294H271.058824zM271.058824 783.058824a30.117647 30.117647 0 1 1 0-60.235295h481.882352a30.117647 30.117647 0 1 1 0 60.235295H271.058824z" fill="#ffffff" p-id="50657"></path></svg>