<?xml version="1.0" standalone="no"?><!DOCTYPE svg PUBLIC "-//W3C//DTD SVG 1.1//EN" "http://www.w3.org/Graphics/SVG/1.1/DTD/svg11.dtd"><svg t="1562133244196" class="icon" viewBox="0 0 1024 1024" version="1.1" xmlns="http://www.w3.org/2000/svg" p-id="21794" width="96" height="96" xmlns:xlink="http://www.w3.org/1999/xlink"><defs><style type="text/css"></style></defs><path d="M76.41791 0h871.16418a76.41791 76.41791 0 0 1 76.41791 76.41791v871.16418a76.41791 76.41791 0 0 1-76.41791 76.41791H76.41791a76.41791 76.41791 0 0 1-76.41791-76.41791V76.41791a76.41791 76.41791 0 0 1 76.41791-76.41791z m683.756896 785.927642c29.497313 0 53.431403-24.530149 53.431403-54.776358v-54.761075c0-30.29206-23.918806-54.852776-53.431403-54.852776V292.848716c0-30.261493-23.93409-54.776358-53.477254-54.776358H332.58603c-29.497313 0-53.492537 24.530149-53.492537 54.776358V621.583284c-29.497313 0-53.416119 24.514866-53.41612 54.761074v54.806926c0 30.261493 23.888239 54.776358 53.46197 54.776358h481.035463z m-427.588776-136.956179V292.833433h374.111522v356.107463H332.58603z m80.162388-273.927642v-0.045851c-14.76394 0-26.700418 12.303284-26.700418 27.418746-0.122269 7.152716 2.628776 14.060896 7.641791 19.211463 4.997731 5.135284 11.86006 8.100299 19.058627 8.222567h213.817313c14.733373 0 26.700418-12.303284 26.700418-27.43403 0-15.115463-11.967045-27.372896-26.700418-27.372895h-213.817313z m0 136.956179v-0.045851c-14.76394 0-26.700418 12.303284-26.700418 27.43403-0.122269 7.152716 2.628776 14.060896 7.641791 19.196179 4.997731 5.150567 11.86006 8.100299 19.058627 8.222567h213.817313c14.733373 0 26.700418-12.303284 26.700418-27.418746 0-15.130746-11.967045-27.388179-26.700418-27.388179h-213.817313z" fill="#8CDB7B" p-id="21795"></path></svg>