<?xml version="1.0" standalone="no"?><!DOCTYPE svg PUBLIC "-//W3C//DTD SVG 1.1//EN" "http://www.w3.org/Graphics/SVG/1.1/DTD/svg11.dtd"><svg t="1546045589211" class="icon" style="" viewBox="0 0 1024 1024" version="1.1" xmlns="http://www.w3.org/2000/svg" p-id="48922" xmlns:xlink="http://www.w3.org/1999/xlink" width="200" height="200"><defs><style type="text/css"></style></defs><path d="M128.621568 769.150976l127.481856 0 0 125.944832-127.481856 0 0-125.944832ZM348.259328 662.854656l127.481856 0 0 232.242176-127.481856 0 0-232.242176ZM546.393088 540.827648l127.481856 0 0 355.805184-127.481856 0 0-355.805184ZM766.798848 414.974976l127.481856 0 0 481.656832-127.481856 0 0-481.656832ZM151.68512 662.854656 107.936768 619.716608 467.972096 254.584832 501.91872 451.627008 811.826176 167.095296 853.378048 212.354048 460.494848 573.067264 427.732992 382.900224ZM702.185472 189.724672 894.839808 125.983744 832.602112 320.838656 798.512128 205.85472Z" p-id="48923" fill="#ffffff"></path></svg>