<?xml version="1.0" standalone="no"?><!DOCTYPE svg PUBLIC "-//W3C//DTD SVG 1.1//EN" "http://www.w3.org/Graphics/SVG/1.1/DTD/svg11.dtd"><svg t="1562576296652" class="icon" viewBox="0 0 1024 1024" version="1.1" xmlns="http://www.w3.org/2000/svg" p-id="17379" width="96" height="96" xmlns:xlink="http://www.w3.org/1999/xlink"><defs><style type="text/css"></style></defs><path d="M941.84034 7.342298H89.436596A82.137872 82.137872 0 0 0 7.276936 89.501957V941.862128A82.15966 82.15966 0 0 0 89.436596 1024h852.381957A82.137872 82.137872 0 0 0 1024 941.84034V89.48017a82.15966 82.15966 0 0 0-82.15966-82.137872z m-179.918978 764.426893c0 27.517277-20.632511 48.934128-47.169362 48.934128H315.065191c-26.558638 0-47.191149-21.416851-47.191148-48.934128V259.573106c0-27.517277 20.632511-48.91234 47.191148-48.91234H596.75234v93.271149c0 44.315234 35.404255 81.026723 78.172596 81.026723h86.996426v386.810553z m-86.996426-418.924936c-26.580426 0-47.191149-21.395064-47.191149-48.91234V210.660766l135.690894 142.183489h-88.499745z" fill="#8CDB7B" p-id="17380"></path><path d="M333.627915 484.765957a21.787234 21.787234 0 0 0 21.787234 21.787234h326.808511a21.787234 21.787234 0 1 0 0-43.574468h-326.808511a21.787234 21.787234 0 0 0-21.787234 21.787234zM682.22366 567.840681h-326.808511a21.787234 21.787234 0 1 0 0 43.574468h326.808511a21.787234 21.787234 0 1 0 0-43.574468zM682.22366 672.680851h-326.808511a21.787234 21.787234 0 1 0 0 43.574468h326.808511a21.787234 21.787234 0 1 0 0-43.574468z" fill="#8CDB7B" p-id="17381"></path></svg>