<?xml version="1.0" standalone="no"?><!DOCTYPE svg PUBLIC "-//W3C//DTD SVG 1.1//EN"
    "http://www.w3.org/Graphics/SVG/1.1/DTD/svg11.dtd">
<svg t="1562133287780" class="icon" viewBox="0 0 1024 1024" version="1.1" xmlns="http://www.w3.org/2000/svg"
    p-id="25864" width="96" height="96" xmlns:xlink="http://www.w3.org/1999/xlink">
    <defs>
        <style type="text/css"></style>
    </defs>
    <path
        d="M113.777778 0h796.444444a113.777778 113.777778 0 0 1 113.777778 113.777778v796.444444a113.777778 113.777778 0 0 1-113.777778 113.777778H113.777778a113.777778 113.777778 0 0 1-113.777778-113.777778V113.777778a113.777778 113.777778 0 0 1 113.777778-113.777778z m476.16 740.010667V381.838222a28.330667 28.330667 0 0 0-28.330667-28.330666H285.411556a28.330667 28.330667 0 0 0-28.387556 28.330666v358.172445c0 15.701333 12.686222 28.387556 28.444444 28.387555h276.138667a28.330667 28.330667 0 0 0 28.330667-28.387555z m176.924444-97.109334V284.728889a28.330667 28.330667 0 0 0-28.330666-28.387556H462.392889a28.330667 28.330667 0 0 0-28.444445 28.387556v22.869333h221.297778c15.701333 0 28.444444 12.686222 28.444445 28.444445V671.288889h54.840889a28.387556 28.387556 0 0 0 28.387555-28.387556z m-243.598222-57.742222c7.224889 0 13.084444 5.461333 13.084444 12.174222s-5.859556 12.174222-13.084444 12.174223H305.664c-7.224889 0-13.084444-5.461333-13.084444-12.174223s5.859556-12.174222 13.084444-12.174222h217.6z m0 97.507556c7.224889 0 13.084444 5.461333 13.084444 12.174222 0 6.769778-5.859556 12.231111-13.084444 12.231111H305.664c-7.224889 0-13.084444-5.461333-13.084444-12.231111 0-6.712889 5.859556-12.174222 13.084444-12.174222h217.6zM338.261333 480.369778v-34.816h-34.702222v-11.605334h34.702222v-34.816h11.719111v34.816h34.816v11.605334h-34.816v34.816h-11.719111z m185.002667 56.035555c7.224889 0 13.084444 5.461333 13.084444 12.174223 0 6.769778-5.859556 12.174222-13.084444 12.174222H305.664c-7.224889 0-13.084444-5.404444-13.084444-12.174222 0-6.712889 5.859556-12.174222 13.084444-12.174223h217.6z"
        fill="#8BDA7B" p-id="25865"></path>
</svg>