<?xml version="1.0" standalone="no"?><!DOCTYPE svg PUBLIC "-//W3C//DTD SVG 1.1//EN" "http://www.w3.org/Graphics/SVG/1.1/DTD/svg11.dtd"><svg t="1546044431671" class="icon" style="" viewBox="0 0 1024 1024" version="1.1" xmlns="http://www.w3.org/2000/svg" p-id="11008" xmlns:xlink="http://www.w3.org/1999/xlink" width="200" height="200"><defs><style type="text/css"></style></defs><path d="M824.89344 0H199.10656A113.88928 113.88928 0 0 0 85.32992 113.77664v796.44672A113.88928 113.88928 0 0 0 199.10656 1024h625.78688a113.88928 113.88928 0 0 0 113.77664-113.77664V113.77664A113.88928 113.88928 0 0 0 824.89344 0zM625.77664 56.89344h113.77664v227.55328l-34.14016-45.49632c-10.72128-14.336-34.816-14.336-45.49632 0l-34.14016 45.49632zM142.22336 910.22336V113.77664a56.96512 56.96512 0 0 1 56.89344-56.89344h56.8832v910.22336h-56.89344a56.96512 56.96512 0 0 1-56.8832-56.8832z m739.55328 0a56.96512 56.96512 0 0 1-56.89344 56.89344h-512V56.89344h256v312.8832a28.43648 28.43648 0 0 0 51.2 17.05984l62.58688-83.41504 62.58688 83.41504a28.43648 28.43648 0 0 0 51.2-17.05984V56.89344h28.44672a56.96512 56.96512 0 0 1 56.89344 56.89344z" p-id="11009" fill="#ffffff"></path></svg>