<?xml version="1.0" encoding="UTF-8"?>
<svg width="79px" height="79px" viewBox="0 0 79 79" version="1.1" xmlns="http://www.w3.org/2000/svg" xmlns:xlink="http://www.w3.org/1999/xlink">
    <!-- Generator: Sketch 52.6 (67491) - http://www.bohemiancoding.com/sketch -->
    <title>Group 5</title>
    <desc>Created with Sketch.</desc>
    <defs>
        <linearGradient x1="50%" y1="20.6579396%" x2="50%" y2="63.839427%" id="linearGradient-1">
            <stop stop-color="#A9E997" offset="0%"></stop>
            <stop stop-color="#71CE5E" offset="100%"></stop>
        </linearGradient>
        <rect id="path-2" x="0" y="0" width="73" height="73" rx="4"></rect>
        <filter x="-7.5%" y="-4.8%" width="115.1%" height="115.1%" filterUnits="objectBoundingBox" id="filter-3">
            <feOffset dx="0" dy="2" in="SourceAlpha" result="shadowOffsetOuter1"></feOffset>
            <feGaussianBlur stdDeviation="1.5" in="shadowOffsetOuter1" result="shadowBlurOuter1"></feGaussianBlur>
            <feColorMatrix values="0 0 0 0 0   0 0 0 0 0   0 0 0 0 0  0 0 0 0.632840806 0" type="matrix" in="shadowBlurOuter1"></feColorMatrix>
        </filter>
    </defs>
    <g id="Page-1" stroke="none" stroke-width="1" fill="none" fill-rule="evenodd">
        <g id="主界面" transform="translate(-34.000000, -227.000000)">
            <g id="Group-5" transform="translate(37.000000, 228.000000)">
                <g id="Rectangle">
                    <use fill="black" fill-opacity="1" filter="url(#filter-3)" xlink:href="#path-2"></use>
                    <use fill="url(#linearGradient-1)" fill-rule="evenodd" xlink:href="#path-2"></use>
                </g>
                <g id="计划停机时间管理" transform="translate(16.000000, 16.000000)" fill="#FFFFFF">
                    <g id="Group">
                        <path d="M29.9750349,8.52500992 L8.80001024,8.52500992 C7.70000896,8.52500992 6.875008,9.35001088 6.875008,10.4500122 C6.875008,11.5500134 7.70000896,12.3750144 8.80001024,12.3750144 L29.9750349,12.3750144 C30.5250355,12.3750144 30.8000358,12.1000141 31.0750362,11.8250138 C31.3500365,11.5500134 31.6250368,11.0000128 31.6250368,10.1750118 C31.9000371,9.35001088 31.0750362,8.52500992 29.9750349,8.52500992 Z M15.9500186,27.500032 L8.80001024,27.500032 C7.70000896,27.500032 6.875008,28.325033 6.875008,29.4250342 C6.875008,30.5250355 7.70000896,31.3500365 8.80001024,31.3500365 L15.9500186,31.3500365 C17.0500198,31.3500365 17.8750208,30.5250355 17.8750208,29.4250342 C17.8750208,28.325033 17.0500198,27.500032 15.9500186,27.500032 Z M23.1000269,17.3250202 L8.80001024,17.3250202 C7.70000896,17.3250202 6.875008,18.1500211 6.875008,19.2500224 C6.875008,20.3500237 7.70000896,21.1750246 8.80001024,21.1750246 L22.8250266,21.1750246 C23.9250278,21.1750246 24.7500288,20.3500237 24.7500288,19.2500224 C25.0250291,18.1500211 24.2000282,17.3250202 23.1000269,17.3250202 Z" id="Shape" fill-rule="nonzero"></path>
                        <path d="M32.7250381,0 L6.05000704,0 C2.7500032,0 2.4424935e-15,2.47500288 2.4424935e-15,5.77500672 L2.4424935e-15,35.7500416 C2.4424935e-15,39.0500454 2.7500032,41.5250483 6.05000704,41.5250483 L22.0000256,41.5250483 L22.0000256,41.250048 C21.450025,40.425047 20.9000243,39.3250458 20.3500237,38.2250445 L6.05000704,38.2250445 C4.40000512,38.2250445 3.30000384,37.1250432 3.30000384,35.4750413 L3.30000384,5.77500672 C3.30000384,4.40000512 4.67500544,3.02500352 6.05000704,3.02500352 L32.7250381,3.02500352 C34.37504,3.02500352 35.4750413,4.1250048 35.4750413,5.77500672 L35.4750413,16.7750195 C36.5750426,17.0500198 37.4000435,17.3250202 38.5000448,17.8750208 L38.7750451,17.8750208 L38.7750451,5.77500672 C38.7750451,2.47500288 36.0250419,-1.22124675e-15 32.7250381,0 Z" id="Path"></path>
                        <path d="M33.2750387,44.0000512 C27.500032,44.0000512 22.5500262,39.3250458 22.5500262,33.2750387 C22.5500262,30.2500352 23.9250278,27.2250317 26.1250304,25.3000294 C26.675031,24.7500288 27.7750323,24.7500288 28.325033,25.3000294 C28.8750336,25.8500301 28.8750336,26.9500314 28.325033,27.500032 C26.675031,28.8750336 25.8500301,31.0750362 25.8500301,33.2750387 C25.8500301,37.4000435 29.1500339,40.9750477 33.550039,40.9750477 C37.9500442,40.9750477 41.250048,37.6750438 41.250048,33.2750387 C41.250048,31.0750362 40.425047,28.8750336 38.7750451,27.500032 C38.2250445,26.9500314 38.2250445,26.1250304 38.7750451,25.3000294 C39.3250458,24.7500288 40.425047,24.7500288 40.9750477,25.3000294 C42.6250496,27.500032 44.0000512,30.2500352 44.0000512,33.2750387 C44.0000512,39.3250458 39.0500454,44.0000512 33.2750387,44.0000512 Z" id="Path"></path>
                        <path d="M33.2750387,31.0750362 C32.4500378,31.0750362 31.6250368,30.2500352 31.6250368,29.4250342 L31.6250368,21.1750246 C31.6250368,20.3500237 32.4500378,19.5250227 33.2750387,19.5250227 C34.1000397,19.5250227 34.9250406,20.3500237 34.9250406,21.1750246 L34.9250406,29.4250342 C34.9250406,30.5250355 34.1000397,31.0750362 33.2750387,31.0750362 Z" id="Path"></path>
                    </g>
                </g>
            </g>
        </g>
    </g>
</svg>