<?xml version="1.0" standalone="no"?><!DOCTYPE svg PUBLIC "-//W3C//DTD SVG 1.1//EN" "http://www.w3.org/Graphics/SVG/1.1/DTD/svg11.dtd"><svg t="1546045213074" class="icon" style="" viewBox="0 0 1024 1024" version="1.1" xmlns="http://www.w3.org/2000/svg" p-id="41351" xmlns:xlink="http://www.w3.org/1999/xlink" width="200" height="200"><defs><style type="text/css"></style></defs><path d="M651.636364 349.090909h46.545454v-69.818182h-46.545454v69.818182z m116.363636-116.363636a23.272727 23.272727 0 0 0-23.272727-23.272728h-139.636364a23.272727 23.272727 0 0 0-23.272727 23.272728v162.909091a23.272727 23.272727 0 0 0 23.272727 23.272727h139.636364a23.272727 23.272727 0 0 0 23.272727-23.272727v-162.909091z m-477.090909 186.181818h186.181818a34.909091 34.909091 0 1 0 0-69.818182h-186.181818a34.909091 34.909091 0 1 0 0 69.818182z m0-139.636364h186.181818a34.909091 34.909091 0 1 0 0-69.818182h-186.181818a34.909091 34.909091 0 1 0 0 69.818182z m581.818182 442.181818a34.909091 34.909091 0 0 0 34.909091-34.90909V93.090909a69.818182 69.818182 0 0 0-69.818182-69.818182H186.181818a69.818182 69.818182 0 0 0-69.818182 69.818182v837.818182a69.818182 69.818182 0 0 0 69.818182 69.818182h651.636364a69.818182 69.818182 0 0 0 69.818182-69.818182v-81.454546a34.909091 34.909091 0 1 0-69.818182 0V930.909091H186.181818V93.090909h651.636364v593.454546a34.909091 34.909091 0 0 0 34.909091 34.90909z m-139.636364 23.272728h-442.181818a34.909091 34.909091 0 1 0 0 69.818182h442.181818a34.909091 34.909091 0 1 0 0-69.818182z m0-139.636364h-442.181818a34.909091 34.909091 0 1 0 0 69.818182h442.181818a34.909091 34.909091 0 1 0 0-69.818182z" p-id="41352" fill="#ffffff"></path></svg>