<svg xmlns="http://www.w3.org/2000/svg" width="888.821" height="898.812" viewBox="0 0 888.821 898.812"><defs><style>.a{fill:#4c88cf;}</style></defs><path class="a" d="M948.188,914.495,765.64,731.949A397.874,397.874,0,0,0,866.892,466.2c0-220.574-178.806-399.38-399.376-399.38S68.141,245.627,68.141,466.2,246.947,865.576,467.517,865.576A397.745,397.745,0,0,0,722.536,773.56L905.829,956.853a29.952,29.952,0,1,0,42.359-42.358ZM128.047,466.2c0-187.487,151.985-339.474,339.47-339.474S806.987,278.714,806.987,466.2,655,805.668,467.517,805.668,128.047,653.683,128.047,466.2Z" transform="translate(-68.141 -66.82)"/></svg>