<?xml version="1.0" encoding="utf-8"?>
<!-- Svg Vector Icons : http://www.sfont.cn -->
<!DOCTYPE svg PUBLIC "-//W3C//DTD SVG 1.1//EN" "http://www.w3.org/Graphics/SVG/1.1/DTD/svg11.dtd">
<svg version="1.1" xmlns="http://www.w3.org/2000/svg" xmlns:xlink="http://www.w3.org/1999/xlink" x="0px" y="0px" viewBox="0 0 1000 1000" enable-background="new 0 0 1000 1000" xml:space="preserve">
<metadata> Svg Vector Icons : http://www.sfont.cn </metadata>
<g><path d="M500,990C229.4,990,10,770.6,10,500C10,229.4,229.4,10,500,10c270.6,0,490,219.4,490,490C990,770.6,770.6,990,500,990z M500,75.3C265.5,75.3,75.3,265.5,75.3,500c0,234.5,190.1,424.7,424.7,424.7c234.5,0,424.7-190.1,424.7-424.7C924.7,265.5,734.5,75.3,500,75.3z M500,794c-36.1,0-65.3-29.2-65.3-65.3c0-36.1,29.2-65.3,65.3-65.3c36.1,0,65.3,29.2,65.3,65.3C565.3,764.8,536.1,794,500,794z M500,598c-18,0-32.7-29.2-32.7-65.3l-32.7-294c0-36.1,29.2-65.3,65.3-65.3c36.1,0,65.3,29.2,65.3,65.3l-32.7,294C532.7,568.8,518,598,500,598z"/></g>
</svg>