<?xml version="1.0" encoding="UTF-8"?>
<svg width="46px" height="36px" viewBox="0 0 46 36" version="1.1" xmlns="http://www.w3.org/2000/svg" xmlns:xlink="http://www.w3.org/1999/xlink">
    <!-- Generator: Sketch 52.6 (67491) - http://www.bohemiancoding.com/sketch -->
    <title>提交</title>
    <desc>Created with Sketch.</desc>
    <g id="Page-1" stroke="none" stroke-width="1" fill="none" fill-rule="evenodd" fill-opacity="0.6">
        <g id="停机记录提报屏" transform="translate(-368.000000, -2800.000000)" fill="#000000" fill-rule="nonzero">
            <g id="Upload/_Resources/Button" transform="translate(0.000000, 2786.000000)">
                <g id="提交" transform="translate(368.000000, 14.000000)">
                    <path d="M45.8959726,0.938679034 L45.4031602,0.3094395 C45.1346459,0.110053524 44.799321,0 44.4592453,0 C44.2877298,0 44.1184962,0.0272416886 43.9562205,0.0808918757 L1.04406025,12.9407439 L1.03351121,12.9441129 C0.445233724,13.1398763 0.0410033742,13.649861 0.00284726119,14.2434183 C-0.0347477325,14.8374103 0.30252238,15.390902 0.862556858,15.6531395 L15.6747973,22.5876344 L15.4511352,29.3496229 C15.4328427,29.9106495 15.7425431,30.4245104 16.259147,30.6902255 L16.2591467,30.6902254 C16.4844006,30.8063554 16.7356605,30.8671352 16.9908463,30.8672239 C17.2990879,30.8672239 17.5957329,30.7807895 17.8510796,30.6170858 L24.6232286,27.1972396 L24.6601128,27.1758664 C25.0006748,26.9504704 25.2275915,26.6116882 25.2993025,26.2224073 C25.3707517,25.8358072 25.28,25.445512 25.044068,25.1236834 C24.7556527,24.73078 24.2831903,24.4962189 23.7806518,24.4962189 C23.4785354,24.4957771 23.1829026,24.5810358 22.9302567,24.7414665 L18.6239653,26.6473704 L18.786428,21.7312962 C18.8052442,21.1550548 18.4671886,20.6185891 17.9247732,20.3645386 L5.57034755,14.5809325 L42.6878661,3.59861969 L38.8238863,32.0870502 L29.1341414,26.4767114 L29.1341416,26.4767115 C28.8967313,26.3429033 28.626972,26.2723485 28.352278,26.2722177 C27.8108352,26.2722177 27.3027604,26.5483658 27.027176,26.9922749 C26.8173174,27.3293546 26.7570906,27.7245402 26.8576806,28.1043299 C26.959505,28.488032 27.2122332,28.8100056 27.5663743,29.0087395 L39.3360014,35.796267 L39.3360013,35.7962669 C39.5735796,35.9295962 39.8432756,35.9998718 40.1178649,36 C40.3607915,35.9996826 40.6003229,35.9447338 40.8175808,35.8394841 C41.2900432,35.6097411 41.6015019,35.1720628 41.6521522,34.668164 L45.992036,1.6159899 L45.9935697,1.60360073 C46.0152741,1.37763171 45.9818564,1.1498854 45.8960098,0.93871522 L45.8959726,0.938679034 Z M39.7208918,9.10875844 C40.0205669,8.82315542 40.1855734,8.44332948 40.1850497,8.0387252 C40.184526,7.63386734 40.0187713,7.25407763 39.7178991,6.96872819 C39.4204685,6.68703754 39.0262261,6.53184685 38.607444,6.53184685 C38.1939365,6.53184685 37.804183,6.68334252 37.5080243,6.95851256 L21.8907646,19.92936 L21.8646913,19.9526531 C21.5650536,20.2384735 21.4002715,20.6188428 21.4008326,21.0233746 C21.401506,21.4279789 21.5675225,21.8078411 21.8679832,22.092466 C22.1653764,22.3741566 22.5595814,22.5293473 22.978139,22.5293473 C23.3921703,22.5293473 23.7818489,22.3778154 24.0780825,22.1026454 L39.6950803,9.13187041 L39.7209292,9.10879467 L39.7208918,9.10875844 Z" id="形状"></path>
                </g>
            </g>
        </g>
    </g>
</svg>