<?xml version="1.0" encoding="UTF-8"?>
<svg width="23px" height="18px" viewBox="0 0 23 18" version="1.1" xmlns="http://www.w3.org/2000/svg" xmlns:xlink="http://www.w3.org/1999/xlink">
    <!-- Generator: Sketch 52.6 (67491) - http://www.bohemiancoding.com/sketch -->
    <title>提交</title>
    <desc>Created with Sketch.</desc>
    <g id="Symbols" stroke="none" stroke-width="1" fill="none" fill-rule="evenodd">
        <g id="Upload/_Resources/Button" transform="translate(-184.000000, -7.000000)" fill="#444" fill-rule="nonzero">
            <g id="提交" transform="translate(184.000000, 7.000000)">
                <path d="M22.9479863,0.469339517 L22.7015801,0.15471975 C22.5673229,0.0550267619 22.3996605,0 22.2296226,0 C22.1438649,0 22.0592481,0.0136208443 21.9781103,0.0404459379 L0.522030125,6.47037197 L0.516755604,6.47205646 C0.222616862,6.56993816 0.0205016871,6.82493051 0.00142363059,7.12170915 C-0.0173738663,7.41870514 0.15126119,7.69545099 0.431278429,7.82656973 L7.83739867,11.2938172 L7.72556759,14.6748114 C7.71642134,14.9553248 7.87127157,15.2122552 8.12957349,15.3451128 L8.12957337,15.3451127 C8.2422003,15.4031777 8.36783024,15.4335676 8.49542316,15.433612 C8.64954393,15.433612 8.79786646,15.3903948 8.92553981,15.3085429 L12.3116143,13.5986198 L12.3300564,13.5879332 C12.5003374,13.4752352 12.6137957,13.3058441 12.6496513,13.1112037 C12.6853759,12.9179036 12.64,12.722756 12.522034,12.5618417 C12.3778264,12.36539 12.1415951,12.2481094 11.8903259,12.2481094 C11.7392677,12.2478885 11.5914513,12.2905179 11.4651284,12.3707333 L9.31198265,13.3236852 L9.39321402,10.8656481 C9.40262212,10.5775274 9.23359428,10.3092946 8.96238662,10.1822693 L2.78517378,7.29046627 L21.3439331,1.79930984 L19.4119432,16.0435251 L14.5670707,13.2383557 C14.4483656,13.1714517 14.313486,13.1361742 14.176139,13.1361088 C13.9054176,13.1361088 13.6513802,13.2741829 13.513588,13.4961375 C13.4086587,13.6646773 13.3785453,13.8622701 13.4288403,14.052165 C13.4797525,14.244016 13.6061166,14.4050028 13.7831871,14.5043697 L19.6680007,17.8981335 C19.7867898,17.9647981 19.9216378,17.9999359 20.0589325,18 C20.1803957,17.9998413 20.3001614,17.9723669 20.4087904,17.9197421 C20.6450216,17.8048705 20.8007509,17.5860314 20.8260761,17.334082 L22.996018,0.80799495 L22.9967849,0.801800364 C23.007637,0.688815856 22.9909282,0.5749427 22.9480049,0.46935761 L22.9479863,0.469339517 Z M19.8604459,4.55437922 C20.0102834,4.41157771 20.0927867,4.22166474 20.0925248,4.0193626 C20.092263,3.81693367 20.0093857,3.62703882 19.8589496,3.48436409 C19.7102343,3.34351877 19.513113,3.26592343 19.303722,3.26592343 C19.0969683,3.26592343 18.9020915,3.34167126 18.7540121,3.47925628 L10.9453823,9.96468 L10.9323456,9.97632655 C10.7825268,10.1192367 10.7001358,10.3094214 10.7004163,10.5116873 C10.700753,10.7139895 10.7837612,10.9039205 10.9339916,11.046233 C11.0826882,11.1870783 11.2797907,11.2646737 11.4890695,11.2646737 C11.6960851,11.2646737 11.8909245,11.1889077 12.0390413,11.0513227 L19.8475401,4.5659352 L19.8604646,4.55439733 L19.8604459,4.55437922 Z" id="形状"></path>
            </g>
        </g>
    </g>
</svg>
