<?xml version="1.0" encoding="utf-8"?>
<!-- Svg Vector Icons : http://www.sfont.cn -->
<!DOCTYPE svg PUBLIC "-//W3C//DTD SVG 1.1//EN" "http://www.w3.org/Graphics/SVG/1.1/DTD/svg11.dtd">
<svg version="1.1" xmlns="http://www.w3.org/2000/svg" xmlns:xlink="http://www.w3.org/1999/xlink" x="0px" y="0px" viewBox="0 0 1000 1000" enable-background="new 0 0 1000 1000" xml:space="preserve">
<metadata> Svg Vector Icons : http://www.sfont.cn </metadata>
<g><path d="M500,10C229.4,10,10,229.4,10,500c0,270.6,219.4,490,490,490c270.6,0,490-219.4,490-490C990,229.4,770.6,10,500,10z M751.4,401.4c-33.4,33.3-85.4,37.5-129,15l-219.9,220c22.5,43.7,18.3,95.6-15.1,129c-25.7,25.8-62.6,34.4-98.2,26.6l56.1-55.4l10.6-52L294.8,624l-50.5,9.8l-56.7,56.6c-7.7-35.6,1-72.5,26.6-98.2c33.3-33.3,85.4-37.5,129-15l220-219.9c-22.6-43.8-18.4-95.7,15-129.1c25.7-25.7,62.6-34.4,98.2-26.6l-56.2,55.5l-10.5,52l61.2,60.5l50.5-9.9l56.7-56.6C785.8,338.8,777,375.6,751.4,401.4z"/></g>
</svg>