<?xml version="1.0" encoding="utf-8"?>
<!-- Svg Vector Icons : http://www.sfont.cn -->
<!DOCTYPE svg PUBLIC "-//W3C//DTD SVG 1.1//EN" "http://www.w3.org/Graphics/SVG/1.1/DTD/svg11.dtd">
<svg version="1.1" xmlns="http://www.w3.org/2000/svg" xmlns:xlink="http://www.w3.org/1999/xlink" x="0px" y="0px" viewBox="0 0 1000 1000" enable-background="new 0 0 1000 1000" xml:space="preserve">
<metadata> Svg Vector Icons : http://www.sfont.cn </metadata>
<g><g transform="translate(0.000000,511.000000) scale(0.100000,-0.100000)"><path d="M4384.1,4848c-1198.8-119.3-2324-705.8-3113.3-1622.2C-132.8,1595.6-289.8-730.4,883.1-2495.8c312.1-471.2,679.9-858.8,1137.2-1200.8c664-495,1524.8-833,2347.9-922.5c248.5-27.8,757.4-27.8,1006,0c1699.8,182.9,3208.7,1310.1,3870.7,2888.7c99.4,236.6,111.3,328,49.7,389.6c-45.7,45.7-153.1,53.7-204.8,15.9c-17.9-13.9-73.6-123.2-123.3-244.5c-240.5-578.5-554.7-1049.7-982.1-1475.1c-1129.2-1127.2-2825-1560.6-4369.7-1119.3c-546.7,157.1-1117.3,453.3-1556.6,809.1c-196.8,161-578.5,552.7-727.6,751.5C879.2-2006.8,584.9-1305,455.7-515.7c-51.7,306.2-51.7,986.1,0,1292.2C624.7,1808.3,1070,2653.2,1809.6,3351c679.9,640.2,1548.7,1043.7,2534.8,1174.9c270.4,35.8,874.8,31.8,1143.1-9.9c582.5-89.5,1083.5-258.4,1556.6-528.8c942.3-536.8,1644.1-1377.7,2000-2403.5c39.8-111.3,59.6-196.8,45.7-186.9c-11.9,8-320.1,226.6-681.9,485.1c-361.8,260.4-679.9,483.1-709.7,497c-113.3,51.7-242.5-75.6-200.8-196.8c11.9-35.8,260.4-226.6,872.8-664C9415.8,766.6,9386,786.4,9461.6,786.4c75.5,0,178.9,61.6,212.7,123.3c27.8,51.7,242.5,2272.3,224.7,2328c-39.8,127.2-222.7,151.1-286.3,35.8c-15.9-31.8-176.9-1618.3-178.9-1773.3c-2-25.8-43.7,69.6-97.4,210.7c-250.5,674-572.5,1188.8-1055.6,1687.9C7505.3,4199.9,6533.2,4685,5411.9,4832.1C5199.2,4859.9,4592.8,4869.9,4384.1,4848z"/><path d="M4728,3323.2l-55.7-47.7l-6-1578.5c-2-866.8,0-1596.4,6-1620.2c6-23.8,29.8-63.6,53.7-85.5c43.7-39.8,63.6-39.8,1672-39.8h1628.2l57.6,57.7c31.8,31.8,57.7,71.6,57.7,89.5c0,55.7-43.7,127.2-93.4,149.1c-33.8,15.9-493,21.9-1558.6,21.9H4978.5l4,1505l4,1503l-53.7,47.7C4863.2,3384.8,4797.6,3382.8,4728,3323.2z"/></g></g>
</svg>