<?xml version="1.0" standalone="no"?><!DOCTYPE svg PUBLIC "-//W3C//DTD SVG 1.1//EN" "http://www.w3.org/Graphics/SVG/1.1/DTD/svg11.dtd"><svg class="icon" width="200px" height="200.00px" viewBox="0 0 1024 1024" version="1.1" xmlns="http://www.w3.org/2000/svg"><path fill="#000000" d="M948.18836 914.49498l-182.547593-182.545546c62.975287-70.596871 101.252055-163.701362 101.252055-265.748526 0-220.573651-178.806385-399.380036-399.375943-399.380036S68.140936 245.627257 68.140936 466.200908c0 220.567511 178.806385 399.37492 399.375943 399.37492 96.957239 0 185.841615-34.555004 255.019161-92.015693L905.8286 956.852694c11.697413 11.7056 30.662347 11.7056 42.35976 0C959.885773 945.159374 959.885773 926.189324 948.18836 914.49498zM128.047328 466.200908c0-187.487092 151.984507-339.473645 339.469552-339.473645 187.482999 0 339.469552 151.986553 339.469552 339.473645 0 187.480952-151.986553 339.467505-339.469552 339.467505C280.031834 805.669436 128.047328 653.682883 128.047328 466.200908z" /></svg>