<?xml version="1.0" encoding="utf-8"?>
<!-- Svg Vector Icons : http://www.sfont.cn -->
<!DOCTYPE svg PUBLIC "-//W3C//DTD SVG 1.1//EN" "http://www.w3.org/Graphics/SVG/1.1/DTD/svg11.dtd">
<svg version="1.1" xmlns="http://www.w3.org/2000/svg" xmlns:xlink="http://www.w3.org/1999/xlink" x="0px" y="0px" viewBox="0 0 1000 1000" enable-background="new 0 0 1000 1000" xml:space="preserve">
<metadata> Svg Vector Icons : http://www.sfont.cn </metadata>
<g><g><g><g><ellipse cx="900.1" cy="268.6" rx="13.5" ry="6.7" fill="#fff"/></g><g><path d="M963,163.5H613c-14.8,0-26.9,12.1-26.9,26.9v97.4H640v-74.7h296.1v80.7H682.1v74h254v13.5h-254v67.3h254v13.4h-254v305.7h-95.9v41.8c0,14.8,12.1,26.9,26.9,26.9h350c14.8,0,26.9-12.1,26.9-26.9V190.4C989.9,175.6,977.8,163.5,963,163.5z M788,658.5c-22.3,0-40.4-18-40.4-40.4c0-22.3,18.1-40.4,40.4-40.4c22.3,0,40.4,18,40.4,40.4C828.4,640.5,810.3,658.5,788,658.5z" fill="#fff"/></g><g><rect x="10" y="319.8" width="640" height="416" fill="#fff"/></g><g><polygon points="234,772.5 170,836.5 490,836.5 426,772.5 " fill="#fff"/></g></g></g><g></g><g></g><g></g><g></g><g></g><g></g><g></g><g></g><g></g><g></g><g></g><g></g><g></g><g></g><g></g></g>
</svg>