<?xml version="1.0" encoding="utf-8"?>
<!-- Svg Vector Icons : http://www.sfont.cn -->
<!DOCTYPE svg PUBLIC "-//W3C//DTD SVG 1.1//EN" "http://www.w3.org/Graphics/SVG/1.1/DTD/svg11.dtd">
<svg version="1.1" xmlns="http://www.w3.org/2000/svg" xmlns:xlink="http://www.w3.org/1999/xlink" x="0px" y="0px" viewBox="0 0 1000 1000" enable-background="new 0 0 1000 1000" xml:space="preserve">
<metadata> Svg Vector Icons : http://www.sfont.cn </metadata>
<g><path d="M871.7,66.9H128.3C48.7,66.9,10,106.2,10,185v472.5c0,78.8,36.3,116,114,116h114l-14,120.3c0,14.6,8,27.9,20.8,34.6c5.8,3.2,12.2,4.7,18.6,4.7c7.7,0,15.3-2.2,21.9-6.6l226.2-153H876c78.9,0,114-37.2,114-116V185C990,106.2,950.6,66.9,871.7,66.9z M272.3,477.3c-31.4,0-56.9-25.6-56.9-56.9s25.5-57.1,56.9-57.1c31.4,0,56.9,25.6,56.9,57.1C329.2,451.9,303.6,477.3,272.3,477.3z M499.9,477.3c-31.5,0-57.2-25.6-57.2-56.9s25.6-57.1,57.2-57.1c31.5,0,57.1,25.6,57.1,57.1C557,451.9,531.3,477.3,499.9,477.3z M727.8,477.3c-31.5,0-57.1-25.6-57.1-56.9s25.5-57.1,57.1-57.1c31.5,0,57.1,25.6,57.1,57.1C784.9,451.9,759.3,477.3,727.8,477.3z" fill="#fff"/></g>
</svg>