<?xml version="1.0" standalone="no"?><!DOCTYPE svg PUBLIC "-//W3C//DTD SVG 1.1//EN" "http://www.w3.org/Graphics/SVG/1.1/DTD/svg11.dtd"><svg t="1546499600624" class="icon" style="" viewBox="0 0 1024 1024" version="1.1" xmlns="http://www.w3.org/2000/svg" p-id="3539" xmlns:xlink="http://www.w3.org/1999/xlink" width="200" height="200"><defs><style type="text/css"></style></defs><path d="M512 1024C229.888 1024 0 794.112 0 512S229.888 0 512 0s512 229.888 512 512-229.888 512-512 512z m0-972.8c-253.952 0-460.8 206.848-460.8 460.8s206.848 460.8 460.8 460.8 460.8-206.848 460.8-460.8-206.848-460.8-460.8-460.8z" fill="#ffffff" p-id="3540"></path><path d="M512 870.4c-28.16 0-51.2-23.04-51.2-51.2V409.6c0-28.16 23.04-51.2 51.2-51.2s51.2 23.04 51.2 51.2v409.6c0 28.16-23.04 51.2-51.2 51.2z" fill="#ffffff" p-id="3541"></path><path d="M512 256m-51.2 0a51.2 51.2 0 1 0 102.4 0 51.2 51.2 0 1 0-102.4 0Z" fill="#ffffff" p-id="3542"></path></svg>