<?xml version="1.0" encoding="utf-8"?>
<!-- Svg Vector Icons : http://www.sfont.cn -->
<!DOCTYPE svg PUBLIC "-//W3C//DTD SVG 1.1//EN" "http://www.w3.org/Graphics/SVG/1.1/DTD/svg11.dtd">
<svg version="1.1" xmlns="http://www.w3.org/2000/svg" xmlns:xlink="http://www.w3.org/1999/xlink" x="0px" y="0px" viewBox="0 0 1000 1000" enable-background="new 0 0 1000 1000" xml:space="preserve">
<metadata> Svg Vector Icons : http://www.sfont.cn </metadata>
<g><path d="M934.4,419H896v0c0,0-43,0.4-64.7-45.9l0,0c-2.3-5.9-4.7-11.8-7.3-17.6h0c-17.4-48.2,13.3-78.2,13.3-78.2v0l27.1-27.1c21.7-21.7,21.7-56.9,0-78.6l-36-36c-21.7-21.7-56.9-21.7-78.6,0l-27.1,27.1l0,0c0,0-30.1,30.7-78.2,13.3l0,0c-5.8-2.6-11.6-5-17.6-7.3l0,0C581.6,147.4,581,105.8,581,104V65.6c0-30.7-24.9-55.6-55.6-55.6h-50.9C443.9,10,419,34.9,419,65.6v38.4h0c0,0,0.4,43-45.9,64.7l0,0c-5.9,2.3-11.8,4.7-17.6,7.3l0,0c-48.2,17.4-78.2-13.3-78.2-13.3l0,0l-27.1-27.1c-21.7-21.7-56.9-21.7-78.6,0l-36,36c-21.7,21.7-21.7,56.9,0,78.6l27.1,27.1l0,0c0,0,30.7,30.1,13.3,78.2l0,0c-2.6,5.8-5,11.6-7.3,17.6l0,0c-21.7,46.4-64.7,45.9-64.7,45.9v0H65.6C34.9,419,10,443.9,10,474.5v50.9c0,30.7,24.9,55.6,55.6,55.6h38.4v0c0,0,43-0.4,64.7,45.9l0,0c2.3,5.9,4.7,11.8,7.3,17.6h0c17.4,48.2-13.3,78.2-13.3,78.2l0,0l-27.1,27.1c-21.7,21.7-21.7,56.9,0,78.6l36,36c21.7,21.7,56.9,21.7,78.6,0l27.1-27.1l0,0c0,0,30.1-30.7,78.2-13.3l0,0c5.8,2.6,11.6,5,17.6,7.3l0,0c46.4,21.7,45.9,64.7,45.9,64.7h0v38.4c0,30.7,24.9,55.6,55.6,55.6h50.9c30.7,0,55.6-24.9,55.6-55.6V896c0-1.8,0.6-43.4,45.9-64.7l0,0c5.9-2.3,11.8-4.7,17.6-7.3v0c48.2-17.4,78.2,13.3,78.2,13.3l0,0l27.1,27.1c21.7,21.7,56.9,21.7,78.6,0l36-36c21.7-21.7,21.7-56.9,0-78.6l-27.2-27.1l0,0c0,0-30.7-30.1-13.3-78.2h0c2.6-5.8,5-11.6,7.3-17.6l0,0C853.1,580.6,896,581,896,581v0h38.4c30.7,0,55.6-24.9,55.6-55.6v-50.9C990,443.9,965.1,419,934.4,419z M500,723.3c-123.3,0-223.3-100-223.3-223.3c0-123.3,100-223.3,223.3-223.3c123.3,0,223.3,100,223.3,223.3C723.3,623.3,623.3,723.3,500,723.3z" fill="#fff"/><path d="M364.2,500c0,75,60.8,135.8,135.8,135.8c75,0,135.8-60.8,135.8-135.8c0-75-60.8-135.8-135.8-135.8C425,364.2,364.2,425,364.2,500z" fill="#fff"/></g>
</svg>