<?xml version="1.0" encoding="utf-8"?>
<!-- Svg Vector Icons : http://www.sfont.cn -->
<!DOCTYPE svg PUBLIC "-//W3C//DTD SVG 1.1//EN" "http://www.w3.org/Graphics/SVG/1.1/DTD/svg11.dtd">
<svg version="1.1" xmlns="http://www.w3.org/2000/svg" xmlns:xlink="http://www.w3.org/1999/xlink" x="0px" y="0px" viewBox="0 0 1000 1000" enable-background="new 0 0 1000 1000" xml:space="preserve">
<metadata> Svg Vector Icons : http://www.sfont.cn </metadata>
<g><path d="M484.1,57c10.4-31.1,28.5-31.1,38.9,0l82.9,259c10.4,31.1,46.6,59.6,80.3,59.6h274.5c33.7,0,38.8,15.5,12.9,36.3L750.9,575c-28.5,20.7-41.4,62.2-31.1,95.8l85.5,261.6c10.4,31.1-2.6,41.4-31.1,23.3L551.5,795.1c-28.5-20.7-72.5-20.7-101,0L227.7,955.7c-28.5,20.7-41.4,10.4-31.1-23.3l85.5-261.6c10.4-31.1-2.6-75.1-31.1-95.8L28.3,414.4C-0.2,393.7,5,378.1,41.2,378.1h274.5c33.7,0,69.9-25.9,80.3-59.6L484.1,57z"/></g>
</svg>