<svg xmlns="http://www.w3.org/2000/svg" width="35.917" height="40.103" viewBox="0 0 35.917 40.103">
  <g id="ticket-finish" transform="translate(-0.043 -0.031)">
    <g id="日常检查清单查看_提报屏" data-name="日常检查清单查看、提报屏" transform="translate(-176 -1816)">
      <g id="检查" transform="translate(176 1816)">
        <g id="编组">
          <path id="形状" d="M14.878,30.061h-.093L11.2,29.967H7.151A1.05,1.05,0,0,0,6.1,31.034a1.071,1.071,0,0,0,.8,1.035A.112.112,0,0,1,7,32.1h4.141l3.74.094H15a1.072,1.072,0,0,0-.124-2.134Zm-.031-6.213h-7.7A1.05,1.05,0,0,0,6.1,24.915a1.071,1.071,0,0,0,.8,1.035A.112.112,0,0,1,7,25.982h7.881a1.05,1.05,0,0,0,1.051-1.067A1.076,1.076,0,0,0,14.847,23.848ZM7.12,17.729H7.089a1.067,1.067,0,0,0,0,2.134H25.262a.518.518,0,0,0,.216-.031,1.1,1.1,0,0,0,.9-1.067A1.05,1.05,0,0,0,25.324,17.7h-.093L7.12,17.729h0Zm28.65,20.522-3.245-3.295a7.687,7.687,0,0,0,1.391-4.55,7.344,7.344,0,1,0-7.51,7.656,7.213,7.213,0,0,0,4.481-1.412l3.245,3.295a.611.611,0,0,0,.834,0L35.8,39.1a.6.6,0,0,0-.031-.847ZM21.306,30.595a5.249,5.249,0,1,1,5.254,5.334,5.274,5.274,0,0,1-5.254-5.334Z"/>
          <path id="形状-2" data-name="形状" d="M18.71,38.032H2.144V2.2H20.256v8.159a2.208,2.208,0,0,0,1.7,2.134,2.374,2.374,0,0,0,.4.031h8V20.8h2.133V11.359A1.561,1.561,0,0,0,32,10.2l-.062-.063L26.035,4.3C26,4.3,22.3.628,22.264.6a1.775,1.775,0,0,0-.247-.22A1.313,1.313,0,0,0,21.8.22a1.448,1.448,0,0,0-.618-.188H2.175a2.19,2.19,0,0,0-2.1,1.726A1.959,1.959,0,0,0,.043,2.2V38a2.146,2.146,0,0,0,1.7,2.1,1.872,1.872,0,0,0,.433.031H18.71v-2.1Zm3.678-34.3,6.83,6.621h-6.83Z"/>
        </g>
      </g>
    </g>
  </g>
</svg>
