<?xml version="1.0" encoding="UTF-8"?>
<svg width="36px" height="41px" viewBox="0 0 36 41" version="1.1" xmlns="http://www.w3.org/2000/svg" xmlns:xlink="http://www.w3.org/1999/xlink">
    <!-- Generator: Sketch 55.2 (78181) - https://sketchapp.com -->
    <title>检查</title>
    <desc>Created with Sketch.</desc>
    <g id="Page-1" stroke="none" stroke-width="1" fill="none" fill-rule="evenodd">
        <g id="日常检查清单查看、提报屏" transform="translate(-176.000000, -1816.000000)" fill="#FFFFFF" fill-rule="nonzero">
            <g id="检查" transform="translate(176.000000, 1816.000000)">
                <g id="编组">
                    <path d="M14.8777582,30.0612198 L14.7850549,30.0612198 L11.1998681,29.9670992 L7.15112088,29.9670992 C6.56391209,29.9670992 6.10030769,30.4377917 6.10030769,31.0339785 C6.10030769,31.5360446 6.44026374,31.9439901 6.90386813,32.0694843 C6.93476923,32.0694843 6.96567033,32.0694843 6.99657143,32.1008579 L11.138022,32.1008579 L14.8777143,32.1949785 L15.0013187,32.1949785 C15.5267253,32.1322314 15.9285275,31.6929124 15.9285275,31.1280992 C15.9285275,30.5319124 15.4649231,30.0612198 14.8777143,30.0612198 L14.8777582,30.0612198 Z M14.8468571,23.8481405 L7.15116484,23.8481405 C6.56395604,23.8481405 6.10035165,24.3188331 6.10035165,24.9150198 C6.10035165,25.417086 6.44030769,25.8250314 6.90391209,25.9505256 C6.93481319,25.9505256 6.96571429,25.9505256 6.99661538,25.9818992 L14.8777582,25.9818992 C15.464967,25.9818992 15.9285714,25.5112066 15.9285714,24.9150198 C15.9285714,24.3188331 15.4340659,23.8481405 14.8468571,23.8481405 Z M7.12017582,17.7292264 L7.08927473,17.7292264 C6.50206593,17.7292264 6.03846154,18.199919 6.03846154,18.7961058 C6.03846154,19.3922926 6.50206593,19.8629851 7.08927473,19.8629851 L25.2623736,19.8629851 C25.3241758,19.8629851 25.4169231,19.8629851 25.4787253,19.8316116 C25.9732308,19.7374909 26.375033,19.2981719 26.375033,18.7647322 C26.375033,18.1685455 25.9114286,17.6978529 25.3242198,17.6978529 L25.2315165,17.6978529 L7.12026374,17.7292264 C7.15116484,17.7292264 7.12026374,17.7292264 7.12026374,17.7292264 L7.12017582,17.7292264 Z M35.7705934,38.2511455 L32.5254066,34.9563421 C33.4217143,33.6698033 33.9471209,32.1008579 33.9162198,30.4063736 C33.8235165,26.4839653 30.671033,23.2519091 26.8076923,23.1264149 C22.5425934,23.000876 19.0810549,26.5153835 19.2355604,30.8456926 C19.3592088,34.7681008 22.5425495,37.9687388 26.4058901,38.0629041 C28.0748571,38.0942777 29.6201758,37.5922116 30.8873407,36.6508264 L34.1325275,39.9456298 C34.3488791,40.1652893 34.7506813,40.1652893 34.966989,39.9456298 L35.8014505,39.0984099 C36.0178022,38.8787504 36.0178022,38.5022231 35.7705495,38.2511901 L35.7705934,38.2511455 Z M21.3063297,30.5946595 C21.3063297,27.5195157 23.8715604,25.0719322 26.9313407,25.2915917 C29.5275165,25.4798777 31.6291429,27.6136364 31.7836923,30.2181322 C32.000044,33.3246496 29.5584176,35.9291455 26.5604835,35.9291455 C23.6552527,35.9291455 21.3063297,33.5443091 21.3063297,30.5947041 L21.3063297,30.5946595 Z" id="形状"></path>
                    <path d="M18.7101538,38.0315306 L2.14421978,38.0315306 L2.14421978,2.19655041 L20.2554725,2.19655041 L20.2554725,10.3551471 C20.2554725,11.3906529 20.9972308,12.2692909 21.9553407,12.4889504 C22.078989,12.520324 22.3571429,12.520324 22.3571429,12.520324 L30.3619341,12.520324 L30.3619341,20.8044149 L32.4945055,20.8044149 L32.4945055,11.3592793 C32.5254066,10.9827074 32.339956,10.5434331 32,10.1982347 L31.9381978,10.1354876 L26.035033,4.29898017 C26.0041319,4.29898017 22.2953407,0.627604959 22.2644396,0.596231405 C22.2026374,0.533484298 22.1098901,0.439319008 22.0171868,0.376571901 C21.9553846,0.313824793 21.8935385,0.28245124 21.8008352,0.219659504 C21.6771868,0.156912397 21.4299341,0.0313735537 21.1826813,0.0313735537 L2.17516484,0.0313735537 C1.15525275,0.0313735537 0.289846154,0.784472727 0.0734945055,1.7572314 C0.0425934066,1.88277025 0.0425934066,2.03963802 0.0425934066,2.19655041 L0.0425934066,38.000157 C0.0425934066,39.0356628 0.784351648,39.9143008 1.74246154,40.1025421 C1.86610989,40.1339157 2.02061538,40.1339157 2.17516484,40.1339157 L18.7101978,40.1339157 L18.7101978,38.0315306 L18.7101538,38.0315306 Z M22.388044,3.73412231 L29.2184176,10.3551025 L22.388044,10.3551025 L22.388044,3.73412231 Z" id="形状"></path>
                </g>
            </g>
        </g>
    </g>
</svg>