<?xml version="1.0" encoding="UTF-8"?>
<svg width="43px" height="39px" viewBox="0 0 43 39" version="1.1" xmlns="http://www.w3.org/2000/svg" xmlns:xlink="http://www.w3.org/1999/xlink">
    <!-- Generator: Sketch 55.2 (78181) - https://sketchapp.com -->
    <title>未完成</title>
    <desc>Created with Sketch.</desc>
    <g id="Page-1" stroke="none" stroke-width="1" fill="none" fill-rule="evenodd" opacity="0.600000024">
        <g id="日常检查清单查看、提报屏" transform="translate(-548.000000, -1818.000000)" fill="#000000" fill-rule="nonzero">
            <g id="未完成" transform="translate(548.000000, 1818.000000)">
                <g id="编组" opacity="0.887090774">
                    <path d="M15.916204,38.2496426 L3.12179261,38.2496426 C1.40480667,38.2468066 0.0132765176,36.8702109 0.0111384102,35.1721292 L0.0111384102,3.08771801 C0.013274843,1.38821898 1.40480667,0.0123302236 3.12179261,0.01091674 L27.522778,0.01091674 C29.2397639,0.013041109 30.6312941,1.38892765 30.6334322,3.08700933 L30.6334322,9.73913396 C30.6334322,10.2858074 30.1854928,10.7283827 29.632868,10.7283827 L29.632868,10.7283827 C29.0818478,10.7299493 28.6338773,10.2870505 28.6323039,9.7391417 C28.6323039,9.739139 28.6323038,9.73913631 28.6323038,9.73913361 L28.6323038,3.08700899 L28.6323039,3.08702053 C28.6299552,2.47959824 28.1336692,1.98863538 27.5227936,1.98941377 L3.12180822,1.98941377 L3.1218082,1.98941377 C2.51093261,1.98862849 2.01463854,2.47958275 2.01228624,3.08700891 L2.01228624,35.17355 L2.01228619,35.1735384 C2.0146348,35.7809607 2.51092088,36.2719235 3.12179648,36.2711451 L15.9162079,36.2711451 C16.4688327,36.2711451 16.9167721,36.7137243 16.9167721,37.2603939 C16.9167721,37.8063587 16.4688327,38.2496426 15.9162079,38.2496426 L15.916204,38.2496426 Z" id="路径"></path>
                    <path d="M24.6371508,9.82990671 L6.91893897,9.82990671 C6.36061642,9.82990671 5.90769205,9.37600035 5.90769205,8.81516494 C5.90769205,8.2550382 6.36061642,7.80042316 6.91893897,7.80042316 L24.6371508,7.80042316 C25.1961861,7.80042316 25.6483977,8.2550382 25.6483977,8.81516494 C25.6483977,9.37600035 25.1961861,9.82990671 24.6371508,9.82990671 Z M15.7780644,17.6575075 L6.91897791,17.6575075 C6.36065537,17.6575075 5.907731,17.2028924 5.907731,16.642057 C5.907731,16.0819303 6.36065537,15.6273153 6.91897791,15.6273153 L15.7780644,15.6273153 C16.3363869,15.6273153 16.7893113,16.0819303 16.7893113,16.642057 C16.7893113,17.2028924 16.3363869,17.6575075 15.7780644,17.6575075 L15.7780644,17.6575075 Z M13.0469846,24.4130294 L6.71954974,24.4130294 C6.16051449,24.4130294 5.70830282,23.9584144 5.70830282,23.3975789 C5.70830282,22.8374522 6.16051449,22.3828372 6.71954974,22.3828372 L13.0469846,22.3828372 C13.6053072,22.3828372 14.0582315,22.8374522 14.0582315,23.3975789 C14.0582315,23.9584144 13.6053072,24.4123207 13.0469846,24.4123207 L13.0469846,24.4130294 Z M13.0469846,31.1692484 L6.71954974,31.1692484 C6.16051449,31.1685402 5.70830282,30.7139247 5.70830282,30.1537979 C5.70830282,29.5929625 6.16051449,29.1390562 6.71954974,29.1390562 L13.0469846,29.1390562 C13.6053072,29.1390562 14.0582315,29.5929625 14.0582315,30.1537979 C14.0582315,30.7139247 13.6053072,31.1685397 13.0469846,31.1685397 L13.0469846,31.1692484 Z" id="形状"></path>
                    <path d="M40.2279653,37.5416969 L21.0384707,37.5416969 C20.1504239,37.5416969 19.3293206,37.0566319 18.8771089,36.2670716 L18.8771087,36.2670713 C18.424901,35.4728407 18.4096071,34.5045348 18.8365166,33.6965798 L28.4269994,15.5331614 C28.864256,14.6954498 29.7109972,14.1735607 30.6325176,14.1735607 C31.5533214,14.1735607 32.4007752,14.6954498 32.837323,15.5331614 L42.4278058,33.6965798 L42.4278058,33.6965799 C42.856436,34.5021067 42.8422053,35.4694019 42.390062,36.2621145 C41.9371376,37.0516747 41.1167431,37.5367397 40.2279875,37.5416969 L40.2279653,37.5416969 Z M30.6317965,16.0706379 L30.6317965,16.0706379 C30.3814806,16.0727 30.1533278,16.2137398 30.0407169,16.436042 L30.0385805,16.4409989 L20.4395686,34.6150281 L20.43672,34.6214012 L20.4367201,34.6214012 C20.3248371,34.8356113 20.3310177,35.0918627 20.4530994,35.3004929 L20.4530994,35.3004929 C20.5709765,35.5120244 20.7938701,35.6444647 21.0370598,35.6474741 L40.2258533,35.6474741 L40.2258534,35.6474741 C40.4689172,35.644025 40.6916064,35.5117065 40.8098137,35.3004929 L40.8098137,35.3004929 C40.9320223,35.0916432 40.938203,34.8351238 40.8261931,34.6206925 L40.8190716,34.6093625 L31.2222018,16.4360304 L31.2222018,16.4360304 C31.1097077,16.2139531 30.8818914,16.0729525 30.631831,16.0706379 L30.6317965,16.0706379 Z" id="形状"></path>
                    <path d="M32.0577085,23.7346735 L32.0577085,23.7346735 C32.0551042,23.6443712 32.0093374,23.5607201 31.9345064,23.5094897 C31.859731,23.4507155 31.7493482,23.3791948 31.635405,23.3791948 L28.9192803,23.3791948 C28.8081856,23.3791948 28.6963785,23.4500072 28.6201789,23.5094897 L28.6201789,23.5094897 C28.543762,23.570132 28.4985794,23.6615449 28.4969776,23.7587496 L28.7070605,29.1751798 C28.7070605,29.3295512 28.8922186,29.4478078 29.1272278,29.4478078 L31.4132151,29.4478078 C31.6354046,29.4478078 31.8205616,29.3295512 31.8333824,29.1751798 L32.0577085,23.7346623 L32.0577085,23.7346735 Z M31.859731,31.3576483 L31.8597311,31.3576471 C31.8613155,31.2548752 31.8206796,31.1559058 31.7472109,31.0836032 L31.7472109,31.0836032 C31.671793,31.0096451 31.5704085,30.9677459 31.4644889,30.9667627 L29.0930434,30.9667627 C28.9862214,30.9667627 28.8836725,31.0092501 28.8081848,31.082187 L28.8081849,31.082187 C28.7336521,31.154763 28.6924435,31.2546413 28.6942416,31.3583557 L28.6942416,33.6101938 L28.6942416,33.6101939 C28.69221,33.713257 28.7328996,33.8126137 28.806761,33.8849465 L28.806761,33.8849464 C28.8823421,33.9590064 28.9840833,34.0006933 29.090195,34.001079 L31.4616404,34.001079 L31.4616404,34.001079 C31.5677521,34.0006933 31.6694933,33.9590064 31.7450744,33.8849464 L31.7450744,33.8849464 C31.8186744,33.812494 31.8591002,33.7131524 31.8568814,33.6101939 L31.8568814,31.3583558 L31.85973,31.3583558 L31.859731,31.3576483 Z" id="形状"></path>
                </g>
            </g>
        </g>
    </g>
</svg>