<svg xmlns="http://www.w3.org/2000/svg" width="42.728" height="38.239" viewBox="0 0 42.728 38.239">
  <g id="Page-1" transform="translate(-0.011 -0.011)" opacity="0.6">
    <g id="日常检查清单查看_提报屏" data-name="日常检查清单查看、提报屏" transform="translate(-548 -1818)">
      <g id="未完成" transform="translate(548 1818)">
        <g id="编组" opacity="0.887">
          <path id="路径" d="M15.916,38.25H3.122A3.1,3.1,0,0,1,.011,35.172V3.088A3.1,3.1,0,0,1,3.122.011h24.4a3.1,3.1,0,0,1,3.111,3.076V9.739a1,1,0,0,1-1,.989h0a1,1,0,0,1-1-.989h0V3.087h0a1.1,1.1,0,0,0-1.109-1.1H3.122a1.105,1.105,0,0,0-1.11,1.1V35.174h0a1.1,1.1,0,0,0,1.11,1.1H15.916a.989.989,0,1,1,0,1.979Z" fill="#fff"/>
          <path id="形状" d="M24.637,9.83H6.919a1.015,1.015,0,0,1,0-2.029H24.637a1.015,1.015,0,0,1,0,2.029Zm-8.859,7.828H6.919a1.015,1.015,0,0,1,0-2.03h8.859a1.015,1.015,0,0,1,0,2.03Zm-2.731,6.756H6.72a1.015,1.015,0,0,1,0-2.03h6.327a1.015,1.015,0,0,1,0,2.03Zm0,6.756H6.72a1.015,1.015,0,0,1,0-2.03h6.327a1.015,1.015,0,0,1,0,2.029Z" fill="#fff"/>
          <path id="形状-2" data-name="形状" d="M40.228,37.542H21.038a2.5,2.5,0,0,1-2.161-1.275h0a2.671,2.671,0,0,1-.041-2.57l9.59-18.163a2.468,2.468,0,0,1,4.41,0L42.428,33.7h0a2.657,2.657,0,0,1-.038,2.565,2.513,2.513,0,0,1-2.162,1.28Zm-9.6-21.471h0a.669.669,0,0,0-.591.365l0,0-9.6,18.174,0,.006h0a.7.7,0,0,0,.016.679h0a.678.678,0,0,0,.584.347H40.226a.68.68,0,0,0,.584-.347h0a.7.7,0,0,0,.016-.68l-.007-.011-9.6-18.173h0a.669.669,0,0,0-.59-.365Z" fill="#fff"/>
          <path id="形状-3" data-name="形状" d="M32.058,23.735h0a.283.283,0,0,0-.123-.225.523.523,0,0,0-.3-.13H28.919a.531.531,0,0,0-.3.13h0a.325.325,0,0,0-.123.249l.21,5.417c0,.154.185.273.42.273h2.286c.222,0,.407-.118.42-.273l.224-5.441Zm-.2,7.623h0a.376.376,0,0,0-.112-.274h0a.409.409,0,0,0-.283-.117H29.093a.412.412,0,0,0-.285.115h0a.376.376,0,0,0-.114.276V33.61h0a.374.374,0,0,0,.113.275h0A.407.407,0,0,0,29.09,34h2.371a.407.407,0,0,0,.284-.116h0a.374.374,0,0,0,.112-.275V31.358h0Z" fill="#fff"/>
        </g>
      </g>
    </g>
  </g>
</svg>
