<?xml version="1.0" standalone="no"?><!DOCTYPE svg PUBLIC "-//W3C//DTD SVG 1.1//EN" "http://www.w3.org/Graphics/SVG/1.1/DTD/svg11.dtd"><svg t="1561444258813" class="icon" viewBox="0 0 1024 1024" version="1.1" xmlns="http://www.w3.org/2000/svg" p-id="6871" xmlns:xlink="http://www.w3.org/1999/xlink" width="48" height="48"><defs><style type="text/css"></style></defs><path d="M909 959H115a50 50 0 0 1-50-50V179a50 50 0 0 1 50-50h119a30 30 0 0 1 0 60c-0.067 0-0.131-0.01-0.2-0.01H145a20 20 0 0 0-20 20V284h774v-75.01a20 20 0 0 0-20-20h-88.8c-0.067 0-0.131 0.01-0.2 0.01a30 30 0 0 1 0-60h119a50 50 0 0 1 50 50v730a50 50 0 0 1-50 50z m-10-615H125v534.99a20 20 0 0 0 20 20h734a20 20 0 0 0 20-20V344zM790 651h-98a30 30 0 0 1 0-60h98a30 30 0 0 1 0 60z m0-123h-98a30 30 0 0 1 0-60h98a30 30 0 0 1 0 60zM561 774h-98a30 30 0 0 1 0-60h98a30 30 0 0 1 0 60z m0-123h-98a30 30 0 0 1 0-60h98a30 30 0 0 1 0 60z m0-123h-98a30 30 0 0 1 0-60h98a30 30 0 0 1 0 60zM332 774h-98a30 30 0 0 1 0-60h98a30 30 0 0 1 0 60z m0-123h-98a30 30 0 0 1 0-60h98a30 30 0 0 1 0 60z m0-123h-98a30 30 0 0 1 0-60h98a30 30 0 0 1 0 60z m372-275a30 30 0 0 1-30-30V95a30 30 0 0 1 60 0v128a30 30 0 0 1-30 30z m-86-64c-0.067 0-0.131-0.01-0.2-0.01H406.2c-0.067 0-0.131 0.01-0.2 0.01a30 30 0 0 1 0-60h212a30 30 0 0 1 0 60z m-298 64a30 30 0 0 1-30-30V95a30 30 0 0 1 60 0v128a30 30 0 0 1-30 30z" p-id="6872" fill="#858789"></path></svg>