<?xml version="1.0" standalone="no"?><!DOCTYPE svg PUBLIC "-//W3C//DTD SVG 1.1//EN" "http://www.w3.org/Graphics/SVG/1.1/DTD/svg11.dtd"><svg class="icon" width="200px" height="200.00px" viewBox="0 0 1024 1024" version="1.1" xmlns="http://www.w3.org/2000/svg"><path fill="#ffffff" d="M544 906.24a32 32 0 0 1-21.76-8.32l-384-352a32 32 0 0 1 0-47.04l384-352a32 32 0 0 1 53.76 23.36v160h256a32 32 0 0 1 32 32v320a32 32 0 0 1-32 32h-256v160a32 32 0 0 1-19.2 29.44 32 32 0 0 1-12.8 2.56z m-336.64-384L512 800v-117.76a32 32 0 0 1 32-32h256v-256h-256a32 32 0 0 1-32-32V242.88z"  /></svg>