<?xml version="1.0" standalone="no"?><!DOCTYPE svg PUBLIC "-//W3C//DTD SVG 1.1//EN" "http://www.w3.org/Graphics/SVG/1.1/DTD/svg11.dtd"><svg t="1566547048823" class="icon" viewBox="0 0 1024 1024" version="1.1" xmlns="http://www.w3.org/2000/svg" p-id="632" data-spm-anchor-id="a313x.7781069.0.i0" xmlns:xlink="http://www.w3.org/1999/xlink" width="200" height="200"><defs><style type="text/css"></style></defs><path d="M885.848547 626.248044c-48.667419 176.270633-210.17993 305.736263-401.932162 305.736263-230.246965 0-416.912341-186.665377-416.912341-416.912341S253.66942 98.157577 483.916385 98.157577c191.752232 0 353.263719 129.46563 401.932162 305.736263l-58.033741 0c-46.888913-145.169287-183.135994-250.1472-343.897398-250.1472-199.562105 0-361.324302 161.762197-361.324302 361.324302s161.762197 361.324302 361.324302 361.324302c160.761404 0 297.008484-104.978936 343.897398-250.1472L885.848547 626.248044 885.848547 626.248044zM859.138208 487.276922l97.27958 138.971122L761.858628 626.248044 859.138208 487.276922z" p-id="633" fill="#558AB7"></path></svg>