<?xml version="1.0" standalone="no"?>
<!DOCTYPE svg PUBLIC "-//W3C//DTD SVG 1.1//EN" "http://www.w3.org/Graphics/SVG/1.1/DTD/svg11.dtd">
<svg t="1520926193295" class="icon" style="" viewBox="0 0 1024 1024" version="1.1" xmlns="http://www.w3.org/2000/svg" p-id="2992" xmlns:xlink="http://www.w3.org/1999/xlink" width="200" height="200"><defs><style type="text/css"></style></defs><path d="M512.70656 34.751147c-263.94624 0-477.866667 213.94432-477.866667 477.866666 0 142.452053 62.675627 269.96736 161.539414 357.512534 0.023893-13.13792-0.023893-23.913813-0.07168-25.664854 0.467627-18.855253 7.79264-54.016 21.282133-71.540053 46.57152-60.71296 106.584747-92.306773 207.01184-102.853973 20.16256-2.474667 35.700053-19.647147 35.700053-40.27392 0-14.2336-45.591893-56.46336-45.591893-56.46336-47.694507-48.790187-72.33536-128.6144-72.33536-190.0032 0-94.757547 76.253867-171.639467 170.33216-171.639467s170.33216 76.885333 170.33216 171.639467c0 61.064533-25.2928 140.397227-72.51968 189.207893 0.372053 0.283307-45.3632 43.02848-45.3632 57.258667 0 19.462827 13.909333 35.84 32.385707 39.59808 102.57408 10.195627 163.239253 42.069333 210.281813 103.529813 13.533867 17.524053 20.814507 52.6848 21.326507 71.540053-0.047787 1.75104-0.07168 12.530347-0.07168 25.644374 98.863787-87.548587 161.491627-215.063893 161.491626-357.492054 0.003413-263.92576-213.961387-477.866667-477.863253-477.866666z" fill="#1A8CDC" p-id="2993"></path></svg>